<?xml version="1.0" encoding="utf-8"?>
<!-- Generator: Adobe Illustrator 19.0.0, SVG Export Plug-In . SVG Version: 6.00 Build 0)  -->
<svg version="1.1" id="Layer_1" xmlns="http://www.w3.org/2000/svg" xmlns:xlink="http://www.w3.org/1999/xlink" x="0px" y="0px"
	 viewBox="0 0 816.3 354.1" style="enable-background:new 0 0 816.3 354.1;" xml:space="preserve">
<style type="text/css">
	.st0{fill:#009F9E;}
	.st1{fill:#FFFFFF;}
</style>
<path class="st0" d="M793.2,354.1H234.9c-6.6,0-12-5.4-12-12v-42.8c0-6.6,5.4-12,12-12h558.3c6.6,0,12,5.4,12,12v42.8
	C805.2,348.7,799.8,354.1,793.2,354.1z"/>
<g>
	<g>
		<path class="st0" d="M120.6,90.8l-14.7-57.8h7.9l6.9,29.2c1.7,7.2,3.3,14.4,4.3,20h0.2c0.9-5.7,2.7-12.6,4.7-20.1l7.7-29.1h7.8
			l7,29.3c1.6,6.9,3.2,13.7,4,19.8h0.2c1.2-6.3,2.8-12.8,4.6-20l7.6-29.1h7.6l-16.4,57.8h-7.8L145,60.7c-1.8-7.4-3-13-3.8-18.9h-0.2
			c-1,5.7-2.3,11.4-4.5,18.9l-8.2,30.1H120.6z"/>
		<path class="st0" d="M213.6,63.7h-22.5v20.8h25v6.3h-32.5V33.1h31.2v6.3h-23.7v18.3h22.5V63.7z"/>
		<path class="st0" d="M224.8,81.7c3.3,2.1,8.2,3.8,13.4,3.8c7.6,0,12.1-4,12.1-9.9c0-5.4-3.1-8.5-10.9-11.5
			c-9.4-3.3-15.3-8.2-15.3-16.4c0-9,7.5-15.7,18.7-15.7c5.9,0,10.2,1.4,12.8,2.8l-2.1,6.1c-1.9-1-5.7-2.7-11-2.7
			c-7.9,0-10.9,4.7-10.9,8.7c0,5.4,3.5,8.1,11.5,11.1c9.8,3.8,14.7,8.5,14.7,17c0,8.9-6.6,16.6-20.2,16.6c-5.6,0-11.7-1.6-14.7-3.7
			L224.8,81.7z"/>
		<path class="st0" d="M279.1,39.4h-17.6v-6.3h42.8v6.3h-17.7v51.4h-7.5V39.4z"/>
		<path class="st0" d="M327.8,81.7c3.3,2.1,8.2,3.8,13.4,3.8c7.6,0,12.1-4,12.1-9.9c0-5.4-3.1-8.5-10.9-11.5
			c-9.4-3.3-15.3-8.2-15.3-16.4c0-9,7.5-15.7,18.7-15.7c5.9,0,10.2,1.4,12.8,2.8l-2.1,6.1c-1.9-1-5.7-2.7-11-2.7
			c-7.9,0-10.9,4.7-10.9,8.7c0,5.4,3.5,8.1,11.5,11.1c9.8,3.8,14.7,8.5,14.7,17c0,8.9-6.6,16.6-20.2,16.6c-5.6,0-11.7-1.6-14.7-3.7
			L327.8,81.7z"/>
		<path class="st0" d="M380.4,72.7l-6,18.2h-7.7l19.6-57.8h9l19.7,57.8h-8l-6.2-18.2H380.4z M399.4,66.8l-5.7-16.6
			c-1.3-3.8-2.1-7.2-3-10.5h-0.2c-0.9,3.4-1.8,6.9-2.9,10.5L382,66.8H399.4z"/>
		<path class="st0" d="M423.6,33.1h7.5v51.5h24.7v6.3h-32.1V33.1z"/>
		<path class="st0" d="M493.9,63.7h-22.5v20.8h25v6.3H464V33.1h31.2v6.3h-23.7v18.3h22.5V63.7z"/>
		<path class="st0" d="M554.8,65.5c-0.4-8.1-0.9-17.7-0.9-24.9h-0.3c-2,6.8-4.4,14-7.3,21.9l-10.2,28h-5.7L521.3,63
			c-2.7-8.1-5.1-15.6-6.7-22.5h-0.2c-0.2,7.2-0.6,16.9-1.1,25.5l-1.5,24.8h-7.1l4-57.8h9.5L528,61c2.4,7.1,4.4,13.5,5.8,19.5h0.3
			c1.5-5.8,3.5-12.2,6.1-19.5l10.3-27.9h9.5l3.6,57.8h-7.3L554.8,65.5z"/>
	</g>
	<g>
		<g>
			<path class="st0" d="M90.5,163.8c-0.6,2.9-1.3,7-2.2,12.3c-0.8,5.3-1.4,9.3-1.7,12.2c-10.7,1.6-20.2,2.4-28.6,2.4
				c-8.1,0-15.6-1-22.6-3c-7-2-13.4-5.3-19.2-10c-5.8-4.6-10-10-12.5-16.3c-2.5-6.2-3.7-13.2-3.7-21c0-9,1.7-17.2,5.1-24.4
				c3.4-7.2,8.2-13.2,14.5-18c6.3-4.8,13.2-8.3,20.8-10.3c7.5-2.1,15.3-3.1,23.4-3.1c7.4,0,16.5,1,27.4,2.8l0.2,6.3
				c0.1,2.7,0.2,5.8,0.4,9.1l0.5,8.5c-5.8-1.4-10.6-2.3-14.2-2.8c-3.6-0.5-7-0.7-10.1-0.7c-6.7,0-12.8,1.3-18.2,4
				c-5.4,2.7-9.6,6.6-12.7,11.8c-3.1,5.1-4.6,10.8-4.6,17.1c0,5.7,1.3,10.6,3.9,14.6c2.6,4.1,6.1,7.2,10.5,9.4
				c4.4,2.2,9.9,3.3,16.4,3.3c3.5,0,7.4-0.3,11.6-0.9C78.9,166.5,84.2,165.4,90.5,163.8z"/>
		</g>
		<g>
			<path class="st0" d="M148.4,110.3c6.2,0,12.1,0.9,17.9,2.8c5.7,1.9,10.5,4.6,14.5,8.2c3.9,3.6,6.9,7.7,8.7,12.5
				c1.9,4.8,2.8,9.9,2.8,15.4c0,5.3-0.8,10.4-2.5,15.2c-1.7,4.8-4.5,9.3-8.5,13.6c-4,4.2-9.1,7.4-15.2,9.5
				c-6.2,2.1-12.7,3.1-19.6,3.1c-6.3,0-12.4-0.9-18.3-2.8c-5.8-1.8-10.7-4.5-14.6-8.1c-3.9-3.5-6.9-7.8-8.8-12.7
				c-2-4.9-3-10.1-3-15.6c0-5.4,1-10.6,2.9-15.6c1.9-4.9,5-9.4,9.1-13.3c4.2-3.9,9.3-7,15.5-9.1
				C135.4,111.4,141.8,110.3,148.4,110.3z M147.9,132.3c-3.2,0-6,0.8-8.5,2.5c-2.5,1.6-4.4,4.1-5.7,7.2c-1.3,3.2-1.9,6.6-1.9,10.4
				c0,5.5,1.4,9.7,4.1,12.6c2.7,2.9,6.2,4.4,10.3,4.4c3.1,0,6-0.8,8.5-2.5c2.5-1.7,4.4-4.1,5.7-7.4c1.3-3.3,1.9-6.8,1.9-10.5
				c0-3.1-0.5-5.9-1.5-8.4c-1-2.5-2.6-4.5-4.9-6C153.6,133.1,151,132.3,147.9,132.3z"/>
		</g>
		<g>
			<path class="st0" d="M202.7,188.7c1.4-11.3,2.5-23.9,3.3-37.6c0.8-13.7,1.2-26.7,1.4-38.9c6,0.1,11.2,0.1,15.5,0.1
				c5,0,9.9,0,14.5-0.1l-0.7,10.2c1.6-1.8,3.1-3.3,4.3-4.4c1.2-1.1,2.7-2.1,4.5-3.1c1.8-1,3.7-1.9,5.7-2.5c2-0.6,4.2-1.2,6.6-1.5
				c2.4-0.4,4.9-0.6,7.5-0.6c3.6,0,7.1,0.4,10.5,1.2c3.4,0.8,6.3,1.9,8.6,3.3c2.3,1.4,4.2,3.2,5.8,5.3c1.5,2.1,2.6,4.4,3.1,6.9
				c0.5,2.4,0.7,5,0.7,7.6c0,1.9-0.2,6-0.6,12.3l-1.3,27.1c-0.3,5.3-0.4,10.3-0.4,14.8c-5-0.1-9.8-0.1-14.1-0.1
				c-5.9,0-11.3,0.1-16.2,0.1c0.5-4.5,0.9-11.3,1.4-20.3c0.5-9,0.8-15.3,0.8-18.9c0-5.6-1.1-9.6-3.3-11.8c-2.2-2.2-4.9-3.3-8.2-3.3
				c-2.9,0-5.6,0.9-8.2,2.8c-2.6,1.9-4.6,4.7-6,8.3c-1.4,3.6-2.4,9.6-3,17.9c-0.6,8.3-1,16.7-1.2,25.3c-5-0.1-9.9-0.1-14.6-0.1
				C213.9,188.6,208.5,188.6,202.7,188.7z"/>
		</g>
		<g>
			<path class="st0" d="M306.9,188.7c1.4-11.3,2.5-23.9,3.3-37.6c0.8-13.7,1.2-26.7,1.4-38.9c6,0.1,11.2,0.1,15.5,0.1
				c5,0,9.9,0,14.5-0.1l-0.7,10.2c1.6-1.8,3.1-3.3,4.3-4.4c1.2-1.1,2.7-2.1,4.5-3.1c1.8-1,3.7-1.9,5.7-2.5c2-0.6,4.2-1.2,6.6-1.5
				c2.4-0.4,4.9-0.6,7.5-0.6c3.6,0,7.1,0.4,10.5,1.2c3.4,0.8,6.3,1.9,8.6,3.3c2.3,1.4,4.2,3.2,5.8,5.3c1.5,2.1,2.6,4.4,3.1,6.9
				c0.5,2.4,0.7,5,0.7,7.6c0,1.9-0.2,6-0.6,12.3l-1.3,27.1c-0.3,5.3-0.4,10.3-0.4,14.8c-5-0.1-9.8-0.1-14.1-0.1
				c-5.9,0-11.3,0.1-16.2,0.1c0.5-4.5,0.9-11.3,1.4-20.3c0.5-9,0.8-15.3,0.8-18.9c0-5.6-1.1-9.6-3.3-11.8c-2.2-2.2-4.9-3.3-8.2-3.3
				c-2.9,0-5.6,0.9-8.2,2.8c-2.6,1.9-4.6,4.7-6,8.3c-1.4,3.6-2.4,9.6-3,17.9c-0.6,8.3-1,16.7-1.2,25.3c-5-0.1-9.9-0.1-14.6-0.1
				C318.2,188.6,312.7,188.6,306.9,188.7z"/>
		</g>
		<g>
			<path class="st0" d="M486,166.1c-0.6,3-1.9,10.2-3.7,21.7c-5.8,1.1-10.7,1.9-14.6,2.3c-3.9,0.4-7.9,0.6-12,0.6
				c-5.9,0-11.4-0.4-16.4-1.2c-5-0.8-9.3-2.3-12.9-4.4c-3.6-2.1-6.7-4.7-9.1-7.8c-2.4-3.1-4.3-6.8-5.6-11.1
				c-1.3-4.3-1.9-8.7-1.9-13.2c0-6.4,1.3-12.6,3.8-18.7c2.5-6.1,5.8-10.9,9.8-14.3c4-3.4,8.6-5.9,13.9-7.3
				c5.2-1.4,10.6-2.2,16.1-2.2c5.7,0,11.1,0.7,16.3,2s9.6,3.6,13.1,6.9c3.6,3.3,6.2,7,7.7,11.2c1.5,4.1,2.3,8.6,2.3,13.4
				c0,2.8-0.3,6-1,9.5l-52.5,0.1c-0.1,0.8-0.1,1.5-0.1,2.2c0,5.4,1.9,9.3,5.8,11.9c3.8,2.5,8.5,3.8,14.1,3.8c3.3,0,7.1-0.4,11.3-1.2
				C474.6,169.2,479.8,167.9,486,166.1z M440,141.9h24.7c0.1-0.8,0.1-1.6,0.1-2.2c0-2.6-0.5-4.8-1.4-6.7c-0.9-1.8-2.2-3.2-4-4
				c-1.7-0.8-3.7-1.3-5.8-1.3c-1.5,0-2.9,0.2-4.3,0.7c-1.4,0.5-2.7,1.2-3.8,2.1c-1.1,0.9-2.1,2-2.8,3.2c-0.7,1.2-1.3,2.4-1.6,3.5
				C440.7,138.3,440.3,139.9,440,141.9z"/>
		</g>
		<g>
			<path class="st0" d="M566.5,164.8c-0.2,2-0.8,5.7-1.8,11l-1.9,12c-7.8,1.9-15.5,2.8-23,2.8c-5.4,0-10.2-0.5-14.3-1.6
				c-4.8-1.3-9.2-3.6-13-6.9c-3.9-3.4-6.8-7.4-8.6-12.1c-2.1-5.4-3.2-11.5-3.2-18.3c0-6.2,1-12.2,3.1-17.9
				c2.1-5.7,5.2-10.5,9.3-14.2c4.1-3.7,8.6-6.2,13.6-7.5c5-1.3,10.5-1.9,16.6-1.9c3.5,0,7.1,0.2,10.7,0.6c3.6,0.4,8,1.2,13.3,2.4
				l0.2,1.7c0.1,1.8,0.3,3.6,0.3,5.5c0.1,1.9,0.2,4.8,0.5,8.9l0.4,6.7c-7.1-2.5-13.5-3.7-18.9-3.7c-3.9,0-7.4,0.8-10.4,2.3
				c-3,1.5-5.2,3.7-6.6,6.6c-1.4,2.9-2.1,6.2-2.1,10c0,3.8,0.6,7.1,1.9,9.7c1.3,2.6,3.3,4.5,6.1,5.8c2.8,1.3,5.9,1.9,9.2,1.9
				c1.7,0,3.7-0.2,6-0.5c2.3-0.3,4.3-0.7,6.1-1.2C561.6,166.5,563.8,165.8,566.5,164.8z"/>
		</g>
		<g>
			<path class="st0" d="M636,166.7c-0.9,4.2-1.7,8.3-2.3,12.3l-1.6,9.1c-4.9,1.1-8.8,1.8-11.6,2.1c-2.8,0.3-5.5,0.4-8.1,0.4
				c-4.2,0-8-0.4-11.3-1.1c-3.3-0.7-6-2-8.2-4c-2.2-1.9-3.7-4.1-4.5-6.6c-0.8-2.5-1.2-5.1-1.2-7.9c0-0.5,0-1.4,0.1-2.7
				c0-1.3,0.2-4.1,0.5-8.5l1.6-25.9h-11.7c0.2-3.4,0.5-8,0.7-13.6l0.2-7H591c0.3-2.3,0.7-7.3,1.1-15.1l12.8-2.6
				c2.3-0.4,7.3-1.6,15-3.4c-0.4,6.5-0.6,13.6-0.8,21.1h17.1c-0.4,10.4-0.6,17.2-0.6,20.6h-17.2l-0.9,18.7c-0.1,2.8-0.2,4.6-0.2,5.4
				c0,2.4,0.3,4.4,0.8,6c0.5,1.6,1.4,2.7,2.8,3.4c1.3,0.7,2.8,1,4.4,1c1.2,0,2.4-0.1,3.8-0.3C630.4,168.1,632.7,167.6,636,166.7z"/>
		</g>
		<g>
			<path class="st0" d="M758.5,188.7l2.3-33.3l0.7-19.1c0-3.4,0.1-7,0.1-10.6c0-3.6,0-8.2-0.1-13.6c6,0.1,10.8,0.1,14.4,0.1
				c4.1,0,8.9,0,14.3-0.1l-0.3,8.5c1.9-2.2,3.5-3.8,4.8-4.9c1.2-1.1,2.7-2,4.3-2.9c1.6-0.9,3.3-1.5,5-1.9c1.7-0.4,3.6-0.6,5.5-0.6
				c1.8,0,3.8,0.2,6,0.7c0,5.4,0.2,9.9,0.4,13.5l0.5,11.5c-2.7-0.8-5.3-1.2-7.7-1.2c-3,0-5.6,0.4-7.7,1.3c-2.2,0.9-4.1,2.2-5.8,4
				c-1.7,1.8-3,4-4,6.6c-1,2.6-1.7,6.8-2.1,12.6c-0.4,5.7-0.6,12.3-0.6,19.7c0,2.6,0.1,5.8,0.3,9.7c-4.8-0.1-9.7-0.1-14.6-0.1
				C769.2,188.6,764,188.6,758.5,188.7z"/>
		</g>
		<g>
			<path class="st0" d="M735.5,103.6c-2.9-1.8-6.1-3.9-5.8-4.7c0.5-1.6,1.6-3.2,3.9-4.5c1.8-1.1,3.4-2.1,2.4-4.2
				c-1.8-3.4-5.3-7.6-7.9-9.7c-0.8-0.8-2.4-0.8-3.7-0.8c-2.5,0-5.3,1.2-7.4,2.5c3.1-9.2,12.9-26.4,28.2-49.9
				c6.5-9.9,10.4-16.4,10.4-21.3c0-4-2.5-7.2-8.4-10.7c-2-1.2-6.7,3-6.7,4.7c0,0.2,0.2,0.5,0.7,0.5c1,0,1.5,0.5,1.5,1.5
				c0,3-3.2,10.2-7.7,19.4C725.9,44.6,712,71.9,712,84.3c0,0.4,0,0.7,0.1,1c-39,25.7-62.3,59.2-62.3,83.5c0,6.1,1.3,11.3,4.2,16.1
				c6.5,9.3,12.7,11.4,24.7,11.4c3.2,0,8.7-0.8,12.2-1.8c33.7-7.1,62-36.4,62-62.2C752.9,121.5,747.9,111.3,735.5,103.6z
				 M693.4,182.9c-6.8,2.9-12.6,4.2-17.1,4.2c-8.9,0-14-6.1-12.6-16.1c2.2-19.3,26.9-46.2,44.1-59.3c0.2,0.8,0.6,1.6,1.2,2.6
				c1.2,2,4.2,3.7,6.7,3.7c1.7,0,2.7-0.7,4.5-3c1.6-2.2,2.9-7,3.3-10.6c3.4,1.2,9.4,4.9,11.6,6.2c6.6,3.9,9.7,10,9.7,17.4
				C744.8,145.5,726.3,168.9,693.4,182.9z"/>
		</g>
	</g>
	<g>
		<g>
			<path class="st0" d="M30.3,240.6c2.1,1.1,5.5,2.2,8.9,2.2c3.7,0,5.7-1.5,5.7-3.9c0-2.2-1.7-3.5-6-5c-5.9-2.1-9.8-5.4-9.8-10.6
				c0-6.1,5.1-10.7,13.5-10.7c4.1,0,7,0.8,9.1,1.8l-1.8,6.5c-1.4-0.7-4-1.7-7.4-1.7c-3.5,0-5.2,1.6-5.2,3.4c0,2.3,2,3.3,6.6,5.1
				c6.3,2.3,9.2,5.6,9.2,10.7c0,6-4.6,11.1-14.3,11.1c-4.1,0-8.1-1.1-10.1-2.2L30.3,240.6z"/>
		</g>
		<g>
			<path class="st0" d="M77.5,239.7l-2.5,9.2h-8.4l10.9-35.7h10.5l11.1,35.7h-8.7l-2.8-9.2H77.5z M86.6,233.6l-2.2-7.6
				c-0.6-2.1-1.2-4.8-1.7-6.9h-0.2c-0.5,2.1-1.1,4.8-1.6,6.9l-2.2,7.6H86.6z"/>
		</g>
		<g>
			<path class="st0" d="M114.6,213.2h8v28.9h14.2v6.8h-22.2V213.2z"/>
		</g>
		<g>
			<path class="st0" d="M173.4,233.7h-13.1v8.5H175v6.6h-22.7v-35.7h22v6.6h-13.9v7.4h13.1V233.7z"/>
		</g>
		<g>
			<path class="st0" d="M221.3,235.2c-0.2-4.3-0.3-9.4-0.3-14.7h-0.1c-1.2,4.6-2.6,9.6-4,13.8l-4.3,13.9h-6.3l-3.8-13.8
				c-1.2-4.2-2.3-9.3-3.2-14H199c-0.2,4.8-0.4,10.3-0.6,14.8l-0.7,13.6h-7.5l2.3-35.7h10.8l3.5,12c1.2,4.1,2.2,8.5,3,12.7h0.2
				c1-4.1,2.2-8.8,3.4-12.8l3.8-11.9h10.6l1.9,35.7h-7.8L221.3,235.2z"/>
		</g>
		<g>
			<path class="st0" d="M273.3,213.2h8v15.8h0.1c0.8-1.4,1.6-2.6,2.5-3.9l8-11.9h10l-11.8,15.2l12.4,20.5h-9.4l-8.8-15.4l-3,3.8
				v11.6h-8V213.2z"/>
		</g>
		<g>
			<path class="st0" d="M337.6,233.7h-13.1v8.5h14.7v6.6h-22.7v-35.7h22v6.6h-13.9v7.4h13.1V233.7z"/>
		</g>
		<g>
			<path class="st0" d="M363.4,213.2v35.7h-8v-35.7H363.4z"/>
		</g>
		<g>
			<path class="st0" d="M378.7,244.5l17-24.5v-0.2h-15.5v-6.7h25.9v4.7L389.5,242v0.2h16.9v6.7h-27.7V244.5z"/>
		</g>
		<g>
			<path class="st0" d="M443.3,233.7h-13.1v8.5h14.7v6.6h-22.7v-35.7h22v6.6h-13.9v7.4h13.1V233.7z"/>
		</g>
		<g>
			<path class="st0" d="M460.9,213.7c2.6-0.5,6.4-0.8,10.7-0.8c5.3,0,9,0.8,11.5,2.9c2.2,1.7,3.3,4.2,3.3,7.5c0,4.5-3.2,7.6-6.3,8.7
				v0.2c2.5,1,3.9,3.3,4.8,6.6c1.1,4.1,2.2,8.7,2.9,10.1h-8.3c-0.5-1-1.4-3.9-2.4-8.3c-1-4.5-2.5-5.7-5.9-5.7h-2.4v14h-8V213.7z
				 M468.9,229h3.2c4,0,6.4-2,6.4-5.1c0-3.2-2.2-4.9-5.9-4.9c-2,0-3.1,0.1-3.6,0.3V229z"/>
		</g>
		<g>
			<path class="st0" d="M531.1,219.9h-9.6v-6.8h27.4v6.8h-9.7v28.9h-8V219.9z"/>
		</g>
		<g>
			<path class="st0" d="M563.8,213.7c2.6-0.5,6.4-0.8,10.7-0.8c5.3,0,9,0.8,11.5,2.9c2.2,1.7,3.3,4.2,3.3,7.5c0,4.5-3.2,7.6-6.3,8.7
				v0.2c2.5,1,3.9,3.3,4.8,6.6c1.1,4.1,2.2,8.7,2.9,10.1h-8.3c-0.5-1-1.4-3.9-2.4-8.3c-1-4.5-2.5-5.7-5.9-5.7h-2.4v14h-8V213.7z
				 M571.8,229h3.2c4,0,6.4-2,6.4-5.1c0-3.2-2.2-4.9-5.9-4.9c-2,0-3.1,0.1-3.7,0.3V229z"/>
		</g>
		<g>
			<path class="st0" d="M614.5,239.7l-2.5,9.2h-8.4l10.9-35.7h10.5l11.1,35.7h-8.7l-2.8-9.2H614.5z M623.6,233.6l-2.2-7.6
				c-0.6-2.1-1.2-4.8-1.7-6.9h-0.2c-0.5,2.1-1.1,4.8-1.6,6.9l-2.2,7.6H623.6z"/>
		</g>
		<g>
			<path class="st0" d="M651.6,248.8v-35.7h9.4l7.4,13.1c2.1,3.8,4.2,8.2,5.8,12.2h0.1c-0.5-4.7-0.6-9.5-0.6-14.9v-10.4h7.4v35.7
				h-8.5l-7.6-13.8c-2.1-3.9-4.5-8.4-6.2-12.6h-0.2c0.3,4.8,0.4,9.8,0.4,15.6v10.7H651.6z"/>
		</g>
		<g>
			<path class="st0" d="M699,240.6c2.1,1.1,5.5,2.2,8.9,2.2c3.7,0,5.7-1.5,5.7-3.9c0-2.2-1.7-3.5-6-5c-5.9-2.1-9.8-5.4-9.8-10.6
				c0-6.1,5.1-10.7,13.5-10.7c4.1,0,7,0.8,9.1,1.8l-1.8,6.5c-1.4-0.7-4-1.7-7.4-1.7c-3.5,0-5.2,1.6-5.2,3.4c0,2.3,2,3.3,6.6,5.1
				c6.3,2.3,9.2,5.6,9.2,10.7c0,6-4.6,11.1-14.3,11.1c-4.1,0-8.1-1.1-10.1-2.2L699,240.6z"/>
		</g>
		<g>
			<path class="st0" d="M746,213.2v35.7h-8v-35.7H746z"/>
		</g>
		<g>
			<path class="st0" d="M770.5,219.9h-9.6v-6.8h27.4v6.8h-9.7v28.9h-8V219.9z"/>
		</g>
		<g>
			<rect x="245" y="227.7" class="st0" width="12.4" height="6.6"/>
		</g>
	</g>
</g>
<g>
	<path class="st1" d="M267,302.5l-0.4,5.3l-0.5-0.2c-3.1-1.2-5.5-1.7-7.2-1.7c-3.6,0-6.6,1.1-8.8,3.4c-1.1,1.1-1.9,2.4-2.5,3.9
		s-0.8,3.2-0.8,5.1c0,3.5,1.1,6.4,3.4,8.7s5.2,3.3,8.9,3.3c1.2,0,3.1-0.4,5.6-1.3l2-0.6l0.6,5.3l-1.8,0.5c-3.1,0.9-5.4,1.3-6.9,1.3
		c-5.7,0-10.3-1.5-13.6-4.6s-5-7.3-5-12.5s1.7-9.5,5-12.7s7.7-4.8,13.2-4.8c1.7,0,4,0.4,6.9,1.3L267,302.5z"/>
	<path class="st1" d="M272.3,298.8h6.2V314c0.8-1.4,2-2.5,3.3-3.2s3-1.1,4.8-1.1c2.8,0,5,0.9,6.5,2.7s2.2,4.4,2.2,7.8v14.5h-6.3
		v-13.1c0-2.3-0.4-3.9-1.1-5s-2-1.6-3.6-1.6c-1.7,0-3.1,0.7-4.2,2.1s-1.6,3.2-1.6,5.6v12.1h-6.2V298.8z"/>
	<path class="st1" d="M323.7,322.3v2h-17.1c0,1,0.2,1.9,0.6,2.7s1,1.5,1.8,2.1c1.4,1.2,3.3,1.8,5.6,1.8c1.3,0,2.5-0.1,3.7-0.4
		s2.3-0.7,3.5-1.3v4.8c-1.2,0.5-2.4,0.8-3.9,1.1c-1.4,0.3-2.9,0.4-4.4,0.4c-4,0-7.2-1.2-9.5-3.5c-2.3-2.3-3.4-5.6-3.4-9.7
		c0-3.7,1.1-6.7,3.3-8.9s5.1-3.4,8.7-3.4c3.5,0,6.3,1.1,8.2,3.3S323.7,318.3,323.7,322.3z M318.1,320.4c0-1-0.2-1.9-0.5-2.7
		s-0.7-1.5-1.3-2.1c-1-1.2-2.3-1.7-3.8-1.7c-1.6,0-2.9,0.6-3.9,1.7s-1.7,2.7-2,4.8H318.1z"/>
	<path class="st1" d="M343.6,310.1l-0.2,5.6l-1-0.2l-1.1-0.1c-2.1,0-3.6,0.7-4.7,2.1s-1.6,3.4-1.6,6v11.4h-6.2v-24.3h5.6v4.9
		c0.8-1.8,1.8-3.2,3-4.1s2.6-1.4,4.2-1.4l0.9,0.1L343.6,310.1z"/>
	<path class="st1" d="M362.5,310.1l-0.2,5.6l-1-0.2l-1.1-0.1c-2.1,0-3.6,0.7-4.7,2.1s-1.6,3.4-1.6,6v11.4h-6.2v-24.3h5.6v4.9
		c0.8-1.8,1.8-3.2,3-4.1s2.6-1.4,4.2-1.4l0.9,0.1L362.5,310.1z"/>
	<path class="st1" d="M366.4,299.5h6.2v6h-6.2V299.5z M366.4,310.4h6.2v24.3h-6.2V310.4z"/>
	<path class="st1" d="M391.1,309.8c4,0,7.2,1.1,9.5,3.4s3.4,5.4,3.4,9.4c0,3.9-1.2,7.1-3.5,9.4c-2.3,2.3-5.5,3.4-9.5,3.4
		s-7.2-1.1-9.5-3.4s-3.4-5.4-3.4-9.4s1.1-7.1,3.4-9.4S387.1,309.8,391.1,309.8z M391.1,314.3c-1.9,0-3.4,0.8-4.6,2.3
		s-1.8,3.5-1.8,5.9c0,2.4,0.6,4.4,1.8,5.9c1.2,1.5,2.7,2.2,4.6,2.2c1.9,0,3.5-0.7,4.6-2.2s1.7-3.5,1.7-5.9s-0.6-4.4-1.8-5.9
		C394.6,315,393.1,314.3,391.1,314.3z"/>
	<path class="st1" d="M418.1,302.5v7.9h5.9v4.6h-5.9v10.7c0,1.8,0.3,3.1,0.8,3.9s1.5,1.2,2.8,1.2c0.4,0,0.7,0,1.1-0.1
		s0.6-0.1,0.7-0.1c0.3-0.1,0.4-0.2,0.5-0.2l0.1,4.4c-0.7,0.2-1.4,0.3-2.1,0.4s-1.5,0.1-2.2,0.1c-2.9,0-4.9-0.7-6.2-2.1
		s-1.9-3.8-1.9-7.1v-11H407v-4.6h5.1v-5.9L418.1,302.5z"/>
	<path class="st1" d="M444.5,311.2l-0.5,4.6c-1.1-0.6-2.2-1-3.2-1.3s-2.1-0.4-3.1-0.4c-1.1,0-2,0.2-2.6,0.6s-0.9,0.9-0.9,1.7
		c0,1.1,1.3,2.2,3.8,3.3l0.6,0.3c2.6,1.1,4.4,2.3,5.4,3.4s1.5,2.5,1.5,4.1c0,2.3-0.9,4.1-2.8,5.5s-4.4,2-7.5,2c-1.4,0-2.7-0.1-4-0.3
		s-2.5-0.5-3.6-0.9l0.3-4.8c1.1,0.5,2.3,1,3.6,1.3c1.2,0.3,2.4,0.4,3.6,0.4c1.2,0,2.2-0.2,2.9-0.6s1-1,1-1.7c0-1.2-1.6-2.6-4.8-4.2
		l-0.1-0.1c-2.4-1.2-4-2.3-4.9-3.3s-1.3-2.3-1.3-3.7c0-2.1,0.9-3.9,2.7-5.2s4.2-2,7.1-2c0.8,0,1.6,0.1,2.6,0.3
		c0.6,0.1,1.1,0.2,1.7,0.4S443.5,310.8,444.5,311.2z"/>
	<path class="st1" d="M451.2,328.5h6.2v6.2h-6.2V328.5z"/>
	<path class="st1" d="M476.4,309.8c4,0,7.2,1.1,9.5,3.4s3.4,5.4,3.4,9.4c0,3.9-1.2,7.1-3.5,9.4c-2.3,2.3-5.5,3.4-9.5,3.4
		s-7.2-1.1-9.5-3.4s-3.4-5.4-3.4-9.4s1.1-7.1,3.4-9.4S472.4,309.8,476.4,309.8z M476.4,314.3c-1.9,0-3.4,0.8-4.6,2.3
		s-1.8,3.5-1.8,5.9c0,2.4,0.6,4.4,1.8,5.9c1.2,1.5,2.7,2.2,4.6,2.2c1.9,0,3.5-0.7,4.6-2.2s1.7-3.5,1.7-5.9s-0.6-4.4-1.8-5.9
		C479.8,315,478.3,314.3,476.4,314.3z"/>
	<path class="st1" d="M509.9,310.1l-0.2,5.6l-1-0.2l-1.1-0.1c-2.1,0-3.6,0.7-4.7,2.1s-1.6,3.4-1.6,6v11.4H495v-24.3h5.6v4.9
		c0.8-1.8,1.8-3.2,3-4.1s2.6-1.4,4.2-1.4l0.9,0.1L509.9,310.1z"/>
	<path class="st1" d="M531.3,314.6v-4.2h5.8v21.4c0,4.5-1.1,7.8-3.4,10.1s-5.6,3.4-10.2,3.4c-0.7,0-1.4,0-2.2-0.1s-1.4-0.2-2.2-0.3
		c-1.4-0.2-2.8-0.6-4.2-1.1l0.4-5c1.2,0.6,2.5,1.1,3.8,1.4s2.6,0.5,3.8,0.5c2.5,0,4.5-0.7,5.9-2.1s2.1-3.3,2.1-5.8v-2.6
		c-1.1,1.5-2.3,2.7-3.6,3.4s-2.8,1.1-4.5,1.1c-3.1,0-5.7-1.1-7.6-3.4s-2.9-5.2-2.9-8.9c0-3.7,1-6.8,2.9-9.1s4.5-3.5,7.6-3.5
		c1.8,0,3.4,0.4,4.8,1.2S530.3,312.9,531.3,314.6z M524.8,314.5c-1.7,0-3.1,0.7-4.1,2.1s-1.6,3.2-1.6,5.5c0,2.3,0.5,4.2,1.6,5.6
		s2.5,2.1,4.2,2.1c1.7,0,3.1-0.7,4.2-2.1s1.7-3.2,1.7-5.4c0-2.4-0.5-4.3-1.6-5.7S526.6,314.5,524.8,314.5z"/>
	<path class="st1" d="M550.7,300.7l4.3,0l-12.7,38.5l-4.2,0L550.7,300.7z"/>
	<path class="st1" d="M575.5,311l-0.5,4.9c-1-0.4-2-0.7-2.8-0.9s-1.5-0.3-2.1-0.3c-2.3,0-4.2,0.7-5.7,2.2c-1.4,1.4-2.1,3.3-2.1,5.7
		c0,2.3,0.7,4.3,2.1,5.7c1.4,1.5,3.3,2.2,5.6,2.2c0.8,0,1.7-0.1,2.5-0.4c0.4-0.1,0.9-0.3,1.3-0.5s1-0.4,1.5-0.8l0.2,5
		c-1.7,0.6-3.1,1-4.1,1.2s-1.9,0.3-2.7,0.3c-4,0-7.1-1.2-9.5-3.6c-2.4-2.4-3.6-5.5-3.6-9.4c0-3.6,1.2-6.6,3.7-9
		c2.4-2.4,5.6-3.6,9.3-3.6c1.4,0,3.2,0.3,5.5,0.9L575.5,311z"/>
	<path class="st1" d="M592.2,309.8c4,0,7.2,1.1,9.5,3.4s3.4,5.4,3.4,9.4c0,3.9-1.2,7.1-3.5,9.4c-2.3,2.3-5.5,3.4-9.5,3.4
		s-7.2-1.1-9.5-3.4s-3.4-5.4-3.4-9.4s1.1-7.1,3.4-9.4S588.2,309.8,592.2,309.8z M592.2,314.3c-1.9,0-3.4,0.8-4.6,2.3
		s-1.8,3.5-1.8,5.9c0,2.4,0.6,4.4,1.8,5.9c1.2,1.5,2.7,2.2,4.6,2.2c1.9,0,3.5-0.7,4.6-2.2s1.7-3.5,1.7-5.9s-0.6-4.4-1.8-5.9
		C595.7,315,594.1,314.3,592.2,314.3z"/>
	<path class="st1" d="M633.8,320.3v14.5h-6.3v-13.1c0-2.3-0.4-3.9-1.1-5s-2-1.6-3.6-1.6c-1.7,0-3.1,0.7-4.2,2.1s-1.6,3.2-1.6,5.6
		v12.1h-6.2v-24.3h5.7v4.4c0.9-1.6,2.1-2.9,3.6-3.8s3.2-1.3,5.1-1.3c2.8,0,5,0.9,6.5,2.7S633.8,316.8,633.8,320.3z"/>
	<path class="st1" d="M663.7,320.3v14.5h-6.3v-13.1c0-2.3-0.4-3.9-1.1-5s-2-1.6-3.6-1.6c-1.7,0-3.1,0.7-4.2,2.1s-1.6,3.2-1.6,5.6
		v12.1h-6.2v-24.3h5.7v4.4c0.9-1.6,2.1-2.9,3.6-3.8s3.2-1.3,5.1-1.3c2.8,0,5,0.9,6.5,2.7S663.7,316.8,663.7,320.3z"/>
	<path class="st1" d="M692.1,322.3v2h-17.1c0,1,0.2,1.9,0.6,2.7s1,1.5,1.8,2.1c1.4,1.2,3.3,1.8,5.6,1.8c1.3,0,2.5-0.1,3.7-0.4
		s2.3-0.7,3.5-1.3v4.8c-1.2,0.5-2.4,0.8-3.9,1.1c-1.4,0.3-2.9,0.4-4.4,0.4c-4,0-7.2-1.2-9.5-3.5c-2.3-2.3-3.4-5.6-3.4-9.7
		c0-3.7,1.1-6.7,3.3-8.9s5.1-3.4,8.7-3.4c3.5,0,6.3,1.1,8.2,3.3S692.1,318.3,692.1,322.3z M686.4,320.4c0-1-0.2-1.9-0.5-2.7
		s-0.7-1.5-1.3-2.1c-1-1.2-2.3-1.7-3.8-1.7c-1.6,0-2.9,0.6-3.9,1.7s-1.7,2.7-2,4.8H686.4z"/>
	<path class="st1" d="M715.1,311l-0.5,4.9c-1-0.4-2-0.7-2.8-0.9s-1.5-0.3-2.1-0.3c-2.3,0-4.2,0.7-5.7,2.2c-1.4,1.4-2.1,3.3-2.1,5.7
		c0,2.3,0.7,4.3,2.1,5.7c1.4,1.5,3.3,2.2,5.6,2.2c0.8,0,1.7-0.1,2.5-0.4c0.4-0.1,0.9-0.3,1.3-0.5s1-0.4,1.5-0.8l0.2,5
		c-1.7,0.6-3.1,1-4.1,1.2s-1.9,0.3-2.7,0.3c-4,0-7.1-1.2-9.5-3.6c-2.4-2.4-3.6-5.5-3.6-9.4c0-3.6,1.2-6.6,3.7-9
		c2.4-2.4,5.6-3.6,9.3-3.6c1.4,0,3.2,0.3,5.5,0.9L715.1,311z"/>
	<path class="st1" d="M728.8,302.5v7.9h5.9v4.6h-5.9v10.7c0,1.8,0.3,3.1,0.8,3.9s1.5,1.2,2.8,1.2c0.4,0,0.7,0,1.1-0.1
		s0.6-0.1,0.7-0.1c0.3-0.1,0.4-0.2,0.5-0.2l0.1,4.4c-0.7,0.2-1.4,0.3-2.1,0.4s-1.5,0.1-2.2,0.1c-2.9,0-4.9-0.7-6.2-2.1
		s-1.9-3.8-1.9-7.1v-11h-4.8v-4.6h5.1v-5.9L728.8,302.5z"/>
	<path class="st1" d="M751.1,309.8c4,0,7.2,1.1,9.5,3.4s3.4,5.4,3.4,9.4c0,3.9-1.2,7.1-3.5,9.4c-2.3,2.3-5.5,3.4-9.5,3.4
		s-7.2-1.1-9.5-3.4s-3.4-5.4-3.4-9.4s1.1-7.1,3.4-9.4S747,309.8,751.1,309.8z M751.1,314.3c-1.9,0-3.4,0.8-4.6,2.3s-1.8,3.5-1.8,5.9
		c0,2.4,0.6,4.4,1.8,5.9c1.2,1.5,2.7,2.2,4.6,2.2c1.9,0,3.5-0.7,4.6-2.2s1.7-3.5,1.7-5.9s-0.6-4.4-1.8-5.9
		C754.5,315,753,314.3,751.1,314.3z"/>
	<path class="st1" d="M784.6,310.1l-0.2,5.6l-1-0.2l-1.1-0.1c-2.1,0-3.6,0.7-4.7,2.1s-1.6,3.4-1.6,6v11.4h-6.2v-24.3h5.6v4.9
		c0.8-1.8,1.8-3.2,3-4.1s2.6-1.4,4.2-1.4l0.9,0.1L784.6,310.1z"/>
</g>
</svg>
