<?xml version="1.0" encoding="utf-8"?>
<!-- Generator: Adobe Illustrator 18.1.1, SVG Export Plug-In . SVG Version: 6.00 Build 0)  -->
<svg version="1.0" id="Layer_1" xmlns="http://www.w3.org/2000/svg" xmlns:xlink="http://www.w3.org/1999/xlink" x="0px" y="0px"
	 viewBox="0 0 612 792" enable-background="new 0 0 612 792" xml:space="preserve">
<path fill="#009F9E" d="M597.8,419.6H179.3c-4.9,0-9-4-9-9v-32.1c0-4.9,4-9,9-9h418.6c4.9,0,9,4,9,9v32.1
	C606.8,415.6,602.8,419.6,597.8,419.6z"/>
<g>
	<g>
		<path fill="#009F9E" d="M93.6,222.2l-11-43.3h5.9l5.2,21.9c1.3,5.4,2.5,10.8,3.2,15H97c0.7-4.3,2-9.4,3.5-15.1l5.8-21.8h5.8
			l5.2,22c1.2,5.2,2.4,10.3,3,14.8h0.1c0.9-4.7,2.1-9.6,3.4-15l5.7-21.8h5.7l-12.3,43.3h-5.8l-5.4-22.6c-1.3-5.5-2.2-9.7-2.8-14.2
			h-0.1c-0.7,4.3-1.7,8.5-3.4,14.2l-6.1,22.6H93.6z"/>
		<path fill="#009F9E" d="M163.3,201.9h-16.9v15.6h18.7v4.7h-24.4V179h23.4v4.7h-17.8v13.7h16.9V201.9z"/>
		<path fill="#009F9E" d="M171.7,215.4c2.5,1.6,6.1,2.8,10,2.8c5.7,0,9.1-3,9.1-7.4c0-4-2.3-6.4-8.2-8.6c-7-2.5-11.5-6.1-11.5-12.3
			c0-6.7,5.6-11.8,14-11.8c4.4,0,7.6,1,9.6,2.1l-1.6,4.6c-1.4-0.7-4.3-2-8.2-2c-5.9,0-8.2,3.5-8.2,6.5c0,4,2.6,6.1,8.6,8.3
			c7.3,2.8,11,6.4,11,12.7c0,6.7-4.9,12.4-15.1,12.4c-4.2,0-8.8-1.2-11-2.8L171.7,215.4z"/>
		<path fill="#009F9E" d="M212.4,183.7h-13.2V179h32.1v4.7H218v38.5h-5.6L212.4,183.7L212.4,183.7z"/>
		<path fill="#009F9E" d="M248.9,215.4c2.5,1.6,6.1,2.8,10,2.8c5.7,0,9.1-3,9.1-7.4c0-4-2.3-6.4-8.2-8.6c-7-2.5-11.5-6.1-11.5-12.3
			c0-6.7,5.6-11.8,14-11.8c4.4,0,7.6,1,9.6,2.1l-1.6,4.6c-1.4-0.7-4.3-2-8.2-2c-5.9,0-8.2,3.5-8.2,6.5c0,4,2.6,6.1,8.6,8.3
			c7.3,2.8,11,6.4,11,12.7c0,6.7-4.9,12.4-15.1,12.4c-4.2,0-8.8-1.2-11-2.8L248.9,215.4z"/>
		<path fill="#009F9E" d="M288.4,208.6l-4.5,13.6h-5.8l14.7-43.3h6.7l14.8,43.3h-6l-4.6-13.6H288.4z M302.6,204.2l-4.3-12.4
			c-1-2.8-1.6-5.4-2.2-7.9h-0.1c-0.7,2.5-1.3,5.2-2.2,7.9l-4.2,12.4H302.6z"/>
		<path fill="#009F9E" d="M320.7,179h5.6v38.6h18.5v4.7h-24.1L320.7,179L320.7,179z"/>
		<path fill="#009F9E" d="M373.4,201.9h-16.9v15.6h18.7v4.7H351V179h23.4v4.7h-17.8v13.7h16.9L373.4,201.9L373.4,201.9z"/>
		<path fill="#009F9E" d="M419.1,203.2c-0.3-6.1-0.7-13.3-0.7-18.7h-0.2c-1.5,5.1-3.3,10.5-5.5,16.4l-7.6,21h-4.3l-6.8-20.6
			c-2-6.1-3.8-11.7-5-16.9h-0.1c-0.1,5.4-0.4,12.7-0.8,19.1l-1.1,18.6h-5.3l3-43.3h7.1l7.3,21c1.8,5.3,3.3,10.1,4.3,14.6h0.2
			c1.1-4.3,2.6-9.1,4.6-14.6l7.7-20.9h7.1l2.7,43.3h-5.5L419.1,203.2z"/>
	</g>
	<g>
		<g>
			<path fill="#009F9E" d="M71,276.9c-0.4,2.2-1,5.2-1.6,9.2c-0.6,4-1,7-1.3,9.1c-8,1.2-15.1,1.8-21.4,1.8c-6.1,0-11.7-0.7-16.9-2.2
				s-10-4-14.4-7.5c-4.3-3.4-7.5-7.5-9.4-12.2c-1.9-4.6-2.8-9.9-2.8-15.7c0-6.7,1.3-12.9,3.8-18.3c2.5-5.4,6.1-9.9,10.9-13.5
				s9.9-6.2,15.6-7.7c5.6-1.6,11.5-2.3,17.5-2.3c5.5,0,12.4,0.7,20.5,2.1l0.1,4.7c0.1,2,0.1,4.3,0.3,6.8l0.4,6.4
				c-4.3-1-7.9-1.7-10.6-2.1c-2.7-0.4-5.2-0.5-7.6-0.5c-5,0-9.6,1-13.6,3c-4,2-7.2,4.9-9.5,8.8c-2.3,3.8-3.4,8.1-3.4,12.8
				c0,4.3,1,7.9,2.9,10.9c1.9,3.1,4.6,5.4,7.9,7s7.4,2.5,12.3,2.5c2.6,0,5.5-0.2,8.7-0.7C62.3,279,66.3,278.1,71,276.9z"/>
		</g>
		<g>
			<path fill="#009F9E" d="M114.4,236.8c4.6,0,9.1,0.7,13.4,2.1c4.3,1.4,7.9,3.4,10.9,6.1c2.9,2.7,5.2,5.8,6.5,9.4
				c1.4,3.6,2.1,7.4,2.1,11.5c0,4-0.6,7.8-1.9,11.4s-3.4,7-6.4,10.2c-3,3.1-6.8,5.5-11.4,7.1c-4.6,1.6-9.5,2.3-14.7,2.3
				c-4.7,0-9.3-0.7-13.7-2.1c-4.3-1.3-8-3.4-10.9-6.1c-2.9-2.6-5.2-5.8-6.6-9.5c-1.5-3.7-2.2-7.6-2.2-11.7c0-4,0.7-7.9,2.2-11.7
				c1.4-3.7,3.7-7,6.8-10c3.1-2.9,7-5.2,11.6-6.8C104.7,237.7,109.5,236.8,114.4,236.8z M114,253.3c-2.4,0-4.5,0.6-6.4,1.9
				c-1.9,1.2-3.3,3.1-4.3,5.4c-1,2.4-1.4,4.9-1.4,7.8c0,4.1,1,7.3,3.1,9.4c2,2.2,4.6,3.3,7.7,3.3c2.3,0,4.5-0.6,6.4-1.9
				c1.9-1.3,3.3-3.1,4.3-5.5c1-2.5,1.4-5.1,1.4-7.9c0-2.3-0.4-4.4-1.1-6.3c-0.7-1.9-1.9-3.4-3.7-4.5
				C118.3,253.9,116.4,253.3,114,253.3z"/>
		</g>
		<g>
			<path fill="#009F9E" d="M155.1,295.6c1-8.5,1.9-17.9,2.5-28.2c0.6-10.3,0.9-20,1-29.2c4.5,0.1,8.4,0.1,11.6,0.1
				c3.7,0,7.4,0,10.9-0.1l-0.5,7.6c1.2-1.3,2.3-2.5,3.2-3.3c0.9-0.8,2-1.6,3.4-2.3c1.3-0.7,2.8-1.4,4.3-1.9c1.5-0.4,3.1-0.9,4.9-1.1
				c1.8-0.3,3.7-0.4,5.6-0.4c2.7,0,5.3,0.3,7.9,0.9c2.5,0.6,4.7,1.4,6.4,2.5c1.7,1,3.1,2.4,4.3,4c1.1,1.6,1.9,3.3,2.3,5.2
				c0.4,1.8,0.5,3.7,0.5,5.7c0,1.4-0.1,4.5-0.4,9.2l-1,20.3c-0.2,4-0.3,7.7-0.3,11.1c-3.7-0.1-7.3-0.1-10.6-0.1
				c-4.4,0-8.5,0.1-12.1,0.1c0.4-3.4,0.7-8.5,1-15.2s0.6-11.5,0.6-14.2c0-4.2-0.8-7.2-2.5-8.8c-1.6-1.6-3.7-2.5-6.1-2.5
				c-2.2,0-4.2,0.7-6.1,2.1c-1.9,1.4-3.4,3.5-4.5,6.2s-1.8,7.2-2.2,13.4c-0.4,6.2-0.7,12.5-0.9,19c-3.7-0.1-7.4-0.1-10.9-0.1
				C163.5,295.5,159.5,295.5,155.1,295.6z"/>
		</g>
		<g>
			<path fill="#009F9E" d="M233.3,295.6c1-8.5,1.9-17.9,2.5-28.2c0.6-10.3,0.9-20,1-29.2c4.5,0.1,8.4,0.1,11.6,0.1
				c3.7,0,7.4,0,10.9-0.1l-0.5,7.6c1.2-1.3,2.3-2.5,3.2-3.3c0.9-0.8,2-1.6,3.4-2.3s2.8-1.4,4.3-1.9c1.5-0.4,3.1-0.9,4.9-1.1
				c1.8-0.3,3.7-0.4,5.6-0.4c2.7,0,5.3,0.3,7.9,0.9c2.5,0.6,4.7,1.4,6.4,2.5c1.7,1,3.1,2.4,4.3,4c1.1,1.6,1.9,3.3,2.3,5.2
				c0.4,1.8,0.5,3.7,0.5,5.7c0,1.4-0.1,4.5-0.4,9.2l-1,20.3c-0.2,4-0.3,7.7-0.3,11.1c-3.7-0.1-7.3-0.1-10.6-0.1
				c-4.4,0-8.5,0.1-12.1,0.1c0.4-3.4,0.7-8.5,1-15.2c0.4-6.7,0.6-11.5,0.6-14.2c0-4.2-0.8-7.2-2.5-8.8c-1.6-1.6-3.7-2.5-6.1-2.5
				c-2.2,0-4.2,0.7-6.1,2.1c-1.9,1.4-3.4,3.5-4.5,6.2c-1,2.7-1.8,7.2-2.2,13.4c-0.4,6.2-0.7,12.5-0.9,19c-3.7-0.1-7.4-0.1-10.9-0.1
				C241.7,295.5,237.6,295.5,233.3,295.6z"/>
		</g>
		<g>
			<path fill="#009F9E" d="M367.5,278.7c-0.4,2.2-1.4,7.6-2.8,16.3c-4.3,0.8-8,1.4-10.9,1.7c-2.9,0.3-5.9,0.4-9,0.4
				c-4.4,0-8.5-0.3-12.3-0.9c-3.7-0.6-7-1.7-9.7-3.3c-2.7-1.6-5-3.5-6.8-5.8s-3.2-5.1-4.2-8.3c-1-3.2-1.4-6.5-1.4-9.9
				c0-4.8,1-9.4,2.8-14c1.9-4.6,4.3-8.2,7.3-10.7s6.4-4.4,10.4-5.5c3.9-1,7.9-1.6,12.1-1.6c4.3,0,8.3,0.5,12.2,1.5
				c3.9,1,7.2,2.7,9.8,5.2c2.7,2.5,4.6,5.2,5.8,8.4c1.1,3.1,1.7,6.4,1.7,10c0,2.1-0.2,4.5-0.7,7.1l-39.4,0.1
				c-0.1,0.6-0.1,1.1-0.1,1.6c0,4,1.4,7,4.3,8.9c2.8,1.9,6.4,2.8,10.6,2.8c2.5,0,5.3-0.3,8.5-0.9C359,281,362.9,280,367.5,278.7z
				 M333,260.5h18.5c0.1-0.6,0.1-1.2,0.1-1.6c0-1.9-0.4-3.6-1-5c-0.7-1.3-1.6-2.4-3-3c-1.3-0.6-2.8-1-4.3-1c-1.1,0-2.2,0.1-3.2,0.5
				s-2,0.9-2.8,1.6c-0.8,0.7-1.6,1.5-2.1,2.4c-0.5,0.9-1,1.8-1.2,2.6C333.6,257.8,333.3,259,333,260.5z"/>
		</g>
		<g>
			<path fill="#009F9E" d="M427.9,277.7c-0.1,1.5-0.6,4.3-1.3,8.2l-1.4,9c-5.8,1.4-11.6,2.1-17.2,2.1c-4,0-7.6-0.4-10.7-1.2
				c-3.6-1-6.9-2.7-9.7-5.2c-2.9-2.5-5.1-5.5-6.4-9.1c-1.6-4-2.4-8.6-2.4-13.7c0-4.6,0.7-9.1,2.3-13.4c1.6-4.3,3.9-7.9,7-10.6
				s6.4-4.6,10.2-5.6c3.7-1,7.9-1.4,12.4-1.4c2.6,0,5.3,0.1,8,0.4c2.7,0.3,6,0.9,10,1.8l0.1,1.3c0.1,1.3,0.2,2.7,0.2,4.1
				c0.1,1.4,0.1,3.6,0.4,6.7l0.3,5c-5.3-1.9-10.1-2.8-14.2-2.8c-2.9,0-5.5,0.6-7.8,1.7c-2.2,1.1-3.9,2.8-4.9,4.9
				c-1,2.2-1.6,4.6-1.6,7.5s0.4,5.3,1.4,7.3c1,1.9,2.5,3.4,4.6,4.3s4.4,1.4,6.9,1.4c1.3,0,2.8-0.1,4.5-0.4c1.7-0.2,3.2-0.5,4.6-0.9
				C424.2,279,425.9,278.4,427.9,277.7z"/>
		</g>
		<g>
			<path fill="#009F9E" d="M480,279.1c-0.7,3.1-1.3,6.2-1.7,9.2l-1.2,6.8c-3.7,0.8-6.6,1.3-8.7,1.6c-2.1,0.2-4.1,0.3-6.1,0.3
				c-3.1,0-6-0.3-8.5-0.8c-2.5-0.5-4.5-1.5-6.1-3c-1.6-1.4-2.8-3.1-3.4-4.9c-0.6-1.9-0.9-3.8-0.9-5.9c0-0.4,0-1,0.1-2
				c0-1,0.1-3.1,0.4-6.4l1.2-19.4h-8.8c0.1-2.5,0.4-6,0.5-10.2l0.1-5.2h9.3c0.2-1.7,0.5-5.5,0.8-11.3l9.6-1.9
				c1.7-0.3,5.5-1.2,11.2-2.5c-0.3,4.9-0.4,10.2-0.6,15.8h12.8c-0.3,7.8-0.4,12.9-0.4,15.4h-12.9l-0.7,14c-0.1,2.1-0.1,3.4-0.1,4
				c0,1.8,0.2,3.3,0.6,4.5c0.4,1.2,1,2,2.1,2.5c1,0.5,2.1,0.7,3.3,0.7c0.9,0,1.8-0.1,2.8-0.2C475.8,280.2,477.5,279.8,480,279.1z"/>
		</g>
		<g>
			<path fill="#009F9E" d="M571.8,295.6l1.7-25l0.5-14.3c0-2.5,0.1-5.2,0.1-7.9c0-2.7,0-6.1-0.1-10.2c4.5,0.1,8.1,0.1,10.8,0.1
				c3.1,0,6.7,0,10.7-0.1l-0.2,6.4c1.4-1.6,2.6-2.8,3.6-3.7c0.9-0.8,2-1.5,3.2-2.2c1.2-0.7,2.5-1.1,3.7-1.4c1.3-0.3,2.7-0.4,4.1-0.4
				c1.3,0,2.8,0.1,4.5,0.5c0,4,0.1,7.4,0.3,10.1l0.4,8.6c-2-0.6-4-0.9-5.8-0.9c-2.2,0-4.2,0.3-5.8,1c-1.6,0.7-3.1,1.6-4.3,3
				c-1.3,1.3-2.2,3-3,4.9c-0.7,1.9-1.3,5.1-1.6,9.4c-0.3,4.3-0.4,9.2-0.4,14.8c0,1.9,0.1,4.3,0.2,7.3c-3.6-0.1-7.3-0.1-10.9-0.1
				C579.8,295.5,575.9,295.5,571.8,295.6z"/>
		</g>
		<g>
			<path fill="#009F9E" d="M554.6,231.8c-2.2-1.3-4.6-2.9-4.3-3.5c0.4-1.2,1.2-2.4,2.9-3.4c1.3-0.8,2.5-1.6,1.8-3.1
				c-1.3-2.5-4-5.7-5.9-7.3c-0.6-0.6-1.8-0.6-2.8-0.6c-1.9,0-4,0.9-5.5,1.9c2.3-6.9,9.7-19.8,21.1-37.4c4.9-7.4,7.8-12.3,7.8-16
				c0-3-1.9-5.4-6.3-8c-1.5-0.9-5,2.2-5,3.5c0,0.1,0.1,0.4,0.5,0.4c0.7,0,1.1,0.4,1.1,1.1c0,2.2-2.4,7.6-5.8,14.5
				c-6.8,13.6-17.2,34.1-17.2,43.4c0,0.3,0,0.5,0.1,0.7c-29.2,19.3-46.7,44.4-46.7,62.6c0,4.6,1,8.5,3.1,12.1
				c4.9,7,9.5,8.5,18.5,8.5c2.4,0,6.5-0.6,9.1-1.3c25.3-5.3,46.5-27.3,46.5-46.6C567.6,245.2,563.9,237.6,554.6,231.8z M523,291.3
				c-5.1,2.2-9.4,3.1-12.8,3.1c-6.7,0-10.5-4.6-9.4-12.1c1.6-14.5,20.2-34.6,33.1-44.5c0.1,0.6,0.4,1.2,0.9,1.9
				c0.9,1.5,3.1,2.8,5,2.8c1.3,0,2-0.5,3.4-2.2c1.2-1.6,2.2-5.2,2.5-7.9c2.5,0.9,7,3.7,8.7,4.6c4.9,2.9,7.3,7.5,7.3,13
				C561.6,263.2,547.7,280.8,523,291.3z"/>
		</g>
	</g>
	<g>
		<g>
			<path fill="#009F9E" d="M25.9,334.5c1.6,0.8,4.1,1.6,6.7,1.6c2.8,0,4.3-1.1,4.3-2.9c0-1.6-1.3-2.6-4.5-3.7
				c-4.4-1.6-7.3-4-7.3-7.9c0-4.6,3.8-8,10.1-8c3.1,0,5.2,0.6,6.8,1.3l-1.3,4.9c-1-0.5-3-1.3-5.5-1.3c-2.6,0-3.9,1.2-3.9,2.5
				c0,1.7,1.5,2.5,4.9,3.8c4.7,1.7,6.9,4.2,6.9,8c0,4.5-3.4,8.3-10.7,8.3c-3.1,0-6.1-0.8-7.6-1.6L25.9,334.5z"/>
		</g>
		<g>
			<path fill="#009F9E" d="M61.3,333.8l-1.9,6.9h-6.3l8.2-26.8h7.9l8.3,26.8h-6.5l-2.1-6.9H61.3z M68.1,329.3l-1.6-5.7
				c-0.4-1.6-0.9-3.6-1.3-5.2H65c-0.4,1.6-0.8,3.6-1.2,5.2l-1.6,5.7H68.1z"/>
		</g>
		<g>
			<path fill="#009F9E" d="M89.1,314h6v21.7h10.6v5.1H89.1V314z"/>
		</g>
		<g>
			<path fill="#009F9E" d="M133.2,329.3h-9.8v6.4h11v4.9h-17v-26.8h16.5v4.9h-10.4v5.5h9.8L133.2,329.3L133.2,329.3z"/>
		</g>
		<g>
			<path fill="#009F9E" d="M169.1,330.5c-0.1-3.2-0.2-7-0.2-11h-0.1c-0.9,3.4-1.9,7.2-3,10.3l-3.2,10.4h-4.7l-2.8-10.3
				c-0.9-3.1-1.7-7-2.4-10.5h-0.2c-0.1,3.6-0.3,7.7-0.4,11.1l-0.5,10.2h-5.6l1.7-26.8h8.1l2.6,9c0.9,3.1,1.6,6.4,2.2,9.5h0.1
				c0.7-3.1,1.6-6.6,2.5-9.6l2.8-8.9h7.9l1.4,26.8h-5.8L169.1,330.5z"/>
		</g>
		<g>
			<path fill="#009F9E" d="M208.1,314h6v11.8h0.1c0.6-1,1.2-1.9,1.9-2.9l6-8.9h7.5l-8.8,11.4l9.3,15.4h-7l-6.6-11.5l-2.2,2.8v8.7h-6
				L208.1,314L208.1,314z"/>
		</g>
		<g>
			<path fill="#009F9E" d="M256.3,329.3h-9.8v6.4h11v4.9h-17v-26.8h16.5v4.9h-10.4v5.5h9.8L256.3,329.3L256.3,329.3z"/>
		</g>
		<g>
			<path fill="#009F9E" d="M275.6,314v26.8h-6V314H275.6z"/>
		</g>
		<g>
			<path fill="#009F9E" d="M287.1,337.4l12.7-18.4v-0.1h-11.6v-5h19.4v3.5l-12.4,18.1v0.1h12.7v5h-20.8V337.4L287.1,337.4z"/>
		</g>
		<g>
			<path fill="#009F9E" d="M335.5,329.3h-9.8v6.4h11v4.9h-17v-26.8h16.5v4.9h-10.4v5.5h9.8L335.5,329.3L335.5,329.3z"/>
		</g>
		<g>
			<path fill="#009F9E" d="M348.7,314.4c1.9-0.4,4.8-0.6,8-0.6c4,0,6.7,0.6,8.6,2.2c1.6,1.3,2.5,3.1,2.5,5.6c0,3.4-2.4,5.7-4.7,6.5
				v0.1c1.9,0.7,2.9,2.5,3.6,4.9c0.8,3.1,1.6,6.5,2.2,7.6h-6.2c-0.4-0.7-1-2.9-1.8-6.2c-0.7-3.4-1.9-4.3-4.4-4.3h-1.8v10.5h-6
				L348.7,314.4L348.7,314.4z M354.7,325.8h2.4c3,0,4.8-1.5,4.8-3.8c0-2.4-1.6-3.7-4.4-3.7c-1.5,0-2.3,0.1-2.7,0.2L354.7,325.8
				L354.7,325.8z"/>
		</g>
		<g>
			<path fill="#009F9E" d="M401.3,319h-7.2v-5.1h20.5v5.1h-7.3v21.7h-6L401.3,319L401.3,319z"/>
		</g>
		<g>
			<path fill="#009F9E" d="M425.9,314.4c1.9-0.4,4.8-0.6,8-0.6c4,0,6.7,0.6,8.6,2.2c1.6,1.3,2.5,3.1,2.5,5.6c0,3.4-2.4,5.7-4.7,6.5
				v0.1c1.9,0.7,2.9,2.5,3.6,4.9c0.8,3.1,1.6,6.5,2.2,7.6h-6.2c-0.4-0.7-1-2.9-1.8-6.2c-0.7-3.4-1.9-4.3-4.4-4.3h-1.8v10.5h-6
				L425.9,314.4L425.9,314.4L425.9,314.4z M431.9,325.8h2.4c3,0,4.8-1.5,4.8-3.8c0-2.4-1.6-3.7-4.4-3.7c-1.5,0-2.3,0.1-2.8,0.2
				V325.8z"/>
		</g>
		<g>
			<path fill="#009F9E" d="M463.9,333.8l-1.9,6.9h-6.3l8.2-26.8h7.9l8.3,26.8h-6.5l-2.1-6.9H463.9z M470.7,329.3l-1.6-5.7
				c-0.4-1.6-0.9-3.6-1.3-5.2h-0.1c-0.4,1.6-0.8,3.6-1.2,5.2l-1.6,5.7H470.7z"/>
		</g>
		<g>
			<path fill="#009F9E" d="M491.7,340.7v-26.8h7l5.5,9.8c1.6,2.8,3.1,6.1,4.3,9.1h0.1c-0.4-3.5-0.4-7.1-0.4-11.2v-7.8h5.5v26.8h-6.4
				l-5.7-10.3c-1.6-2.9-3.4-6.3-4.6-9.4h-0.1c0.2,3.6,0.3,7.3,0.3,11.7v8L491.7,340.7L491.7,340.7L491.7,340.7z"/>
		</g>
		<g>
			<path fill="#009F9E" d="M527.2,334.5c1.6,0.8,4.1,1.6,6.7,1.6c2.8,0,4.3-1.1,4.3-2.9c0-1.6-1.3-2.6-4.5-3.7
				c-4.4-1.6-7.3-4-7.3-7.9c0-4.6,3.8-8,10.1-8c3.1,0,5.2,0.6,6.8,1.3l-1.3,4.9c-1-0.5-3-1.3-5.5-1.3c-2.6,0-3.9,1.2-3.9,2.5
				c0,1.7,1.5,2.5,4.9,3.8c4.7,1.7,6.9,4.2,6.9,8c0,4.5-3.4,8.3-10.7,8.3c-3.1,0-6.1-0.8-7.6-1.6L527.2,334.5z"/>
		</g>
		<g>
			<path fill="#009F9E" d="M562.5,314v26.8h-6V314H562.5z"/>
		</g>
		<g>
			<path fill="#009F9E" d="M580.8,319h-7.2v-5.1h20.5v5.1h-7.3v21.7h-6L580.8,319L580.8,319z"/>
		</g>
		<g>
			<rect x="186.8" y="324.9" fill="#009F9E" width="9.3" height="4.9"/>
		</g>
	</g>
</g>
<g>
	<path fill="#FFFFFF" d="M203.3,380.9l-0.3,4l-0.4-0.1c-2.3-0.9-4.1-1.3-5.4-1.3c-2.7,0-4.9,0.8-6.6,2.5c-0.8,0.8-1.4,1.8-1.9,2.9
		c-0.4,1.1-0.6,2.4-0.6,3.8c0,2.6,0.8,4.8,2.5,6.5c1.7,1.7,3.9,2.5,6.7,2.5c0.9,0,2.3-0.3,4.2-1l1.5-0.4l0.4,4l-1.3,0.4
		c-2.3,0.7-4,1-5.2,1c-4.3,0-7.7-1.1-10.2-3.4s-3.7-5.5-3.7-9.4s1.3-7.1,3.7-9.5c2.5-2.4,5.8-3.6,9.9-3.6c1.3,0,3,0.3,5.2,1
		L203.3,380.9z"/>
	<path fill="#FFFFFF" d="M207.3,378.2h4.6v11.4c0.6-1,1.5-1.9,2.5-2.4c1-0.5,2.2-0.8,3.6-0.8c2.1,0,3.7,0.7,4.9,2s1.6,3.3,1.6,5.8
		v10.9h-4.7v-9.8c0-1.7-0.3-2.9-0.8-3.7c-0.5-0.8-1.5-1.2-2.7-1.2c-1.3,0-2.3,0.5-3.1,1.6c-0.8,1-1.2,2.4-1.2,4.2v9.1h-4.6
		L207.3,378.2L207.3,378.2z"/>
	<path fill="#FFFFFF" d="M245.8,395.8v1.5H233c0,0.7,0.1,1.4,0.4,2c0.3,0.6,0.7,1.1,1.3,1.6c1,0.9,2.5,1.3,4.2,1.3
		c1,0,1.9-0.1,2.8-0.3c0.9-0.2,1.7-0.5,2.6-1v3.6c-0.9,0.4-1.8,0.6-2.9,0.8c-1,0.2-2.2,0.3-3.3,0.3c-3,0-5.4-0.9-7.1-2.6
		c-1.7-1.7-2.5-4.2-2.5-7.3c0-2.8,0.8-5,2.5-6.7c1.6-1.6,3.8-2.5,6.5-2.5c2.6,0,4.7,0.8,6.1,2.5
		C245.1,390.7,245.8,392.8,245.8,395.8z M241.6,394.4c0-0.7-0.1-1.4-0.4-2c-0.2-0.6-0.5-1.1-1-1.6c-0.7-0.9-1.7-1.3-2.8-1.3
		c-1.2,0-2.2,0.4-2.9,1.3c-0.7,0.8-1.3,2-1.5,3.6H241.6L241.6,394.4z"/>
	<path fill="#FFFFFF" d="M260.8,386.6l-0.1,4.2l-0.7-0.1l-0.8-0.1c-1.6,0-2.7,0.5-3.5,1.6c-0.8,1-1.2,2.5-1.2,4.5v8.5h-4.6V387h4.2
		v3.7c0.6-1.3,1.3-2.4,2.2-3.1c0.9-0.7,1.9-1,3.1-1l0.7,0.1H260.8z"/>
	<path fill="#FFFFFF" d="M274.9,386.6l-0.1,4.2l-0.7-0.1l-0.8-0.1c-1.6,0-2.7,0.5-3.5,1.6c-0.8,1-1.2,2.5-1.2,4.5v8.5h-4.6V387h4.2
		v3.7c0.6-1.3,1.3-2.4,2.2-3.1c0.9-0.7,1.9-1,3.1-1l0.7,0.1H274.9z"/>
	<path fill="#FFFFFF" d="M277.9,378.7h4.6v4.5h-4.6V378.7z M277.9,386.9h4.6v18.2h-4.6V386.9z"/>
	<path fill="#FFFFFF" d="M296.4,386.4c3,0,5.4,0.8,7.1,2.5c1.7,1.7,2.5,4,2.5,7c0,2.9-0.9,5.3-2.6,7c-1.7,1.7-4.1,2.5-7.1,2.5
		s-5.4-0.8-7.1-2.5c-1.7-1.7-2.5-4-2.5-7c0-3,0.8-5.3,2.5-7C290.9,387.2,293.4,386.4,296.4,386.4z M296.4,389.8
		c-1.4,0-2.5,0.6-3.4,1.7c-0.9,1.1-1.3,2.6-1.3,4.4s0.4,3.3,1.3,4.4c0.9,1.1,2,1.6,3.4,1.6s2.6-0.5,3.4-1.6c0.8-1.1,1.3-2.6,1.3-4.4
		s-0.4-3.3-1.3-4.4C299,390.3,297.9,389.8,296.4,389.8z"/>
	<path fill="#FFFFFF" d="M316.6,380.9v5.9h4.4v3.4h-4.4v8c0,1.3,0.2,2.3,0.6,2.9c0.4,0.6,1.1,0.9,2.1,0.9c0.3,0,0.5,0,0.8-0.1
		c0.3-0.1,0.4-0.1,0.5-0.1c0.2-0.1,0.3-0.1,0.4-0.1l0.1,3.3c-0.5,0.1-1,0.2-1.6,0.3c-0.5,0.1-1.1,0.1-1.6,0.1
		c-2.2,0-3.7-0.5-4.6-1.6s-1.4-2.8-1.4-5.3v-8.2h-3.5v-3.4h3.8v-4.4L316.6,380.9z"/>
	<path fill="#FFFFFF" d="M336.4,387.5l-0.4,3.4c-0.8-0.4-1.6-0.7-2.4-1c-0.7-0.2-1.6-0.3-2.3-0.3c-0.8,0-1.5,0.1-1.9,0.4
		s-0.7,0.7-0.7,1.3c0,0.8,1,1.6,2.8,2.5l0.4,0.2c1.9,0.8,3.3,1.7,4,2.5c0.7,0.8,1.1,1.9,1.1,3.1c0,1.7-0.7,3.1-2.1,4.1
		s-3.3,1.5-5.6,1.5c-1,0-2-0.1-3-0.2c-1-0.1-1.9-0.4-2.7-0.7l0.2-3.6c0.8,0.4,1.7,0.7,2.7,1c0.9,0.2,1.8,0.3,2.7,0.3
		c0.9,0,1.6-0.1,2.2-0.4c0.5-0.3,0.7-0.7,0.7-1.3c0-0.9-1.2-1.9-3.6-3.1l-0.1-0.1c-1.8-0.9-3-1.7-3.7-2.5s-1-1.7-1-2.8
		c0-1.6,0.7-2.9,2-3.9c1.3-1,3.1-1.5,5.3-1.5c0.6,0,1.2,0.1,1.9,0.2c0.4,0.1,0.8,0.1,1.3,0.3C335,387.2,335.7,387.2,336.4,387.5z"/>
	<path fill="#FFFFFF" d="M341.4,400.4h4.6v4.6h-4.6V400.4z"/>
	<path fill="#FFFFFF" d="M360.3,386.4c3,0,5.4,0.8,7.1,2.5c1.7,1.7,2.5,4,2.5,7c0,2.9-0.9,5.3-2.6,7c-1.7,1.7-4.1,2.5-7.1,2.5
		c-3,0-5.4-0.8-7.1-2.5c-1.7-1.7-2.5-4-2.5-7c0-3,0.8-5.3,2.5-7C354.9,387.2,357.3,386.4,360.3,386.4z M360.3,389.8
		c-1.4,0-2.5,0.6-3.4,1.7c-0.9,1.1-1.3,2.6-1.3,4.4s0.4,3.3,1.3,4.4c0.9,1.1,2,1.6,3.4,1.6s2.6-0.5,3.4-1.6c0.8-1.1,1.3-2.6,1.3-4.4
		s-0.4-3.3-1.3-4.4C362.9,390.3,361.8,389.8,360.3,389.8z"/>
	<path fill="#FFFFFF" d="M385.4,386.6l-0.1,4.2l-0.7-0.1l-0.8-0.1c-1.6,0-2.7,0.5-3.5,1.6c-0.8,1-1.2,2.5-1.2,4.5v8.5h-4.7V387h4.2
		v3.7c0.6-1.3,1.3-2.4,2.2-3.1c0.9-0.7,1.9-1,3.1-1l0.7,0.1H385.4z"/>
	<path fill="#FFFFFF" d="M401.5,390v-3.1h4.3v16c0,3.4-0.8,5.8-2.5,7.6c-1.7,1.7-4.2,2.5-7.6,2.5c-0.5,0-1,0-1.6-0.1
		c-0.6-0.1-1-0.1-1.6-0.2c-1-0.1-2.1-0.4-3.1-0.8l0.3-3.7c0.9,0.4,1.9,0.8,2.8,1c1,0.2,1.9,0.4,2.8,0.4c1.9,0,3.4-0.5,4.4-1.6
		c1-1,1.6-2.5,1.6-4.3v-1.9c-0.8,1.1-1.7,2-2.7,2.5s-2.1,0.8-3.4,0.8c-2.3,0-4.3-0.8-5.7-2.5c-1.4-1.7-2.2-3.9-2.2-6.7
		s0.7-5.1,2.2-6.8c1.4-1.7,3.4-2.6,5.7-2.6c1.3,0,2.5,0.3,3.6,0.9C399.8,387.9,400.7,388.7,401.5,390z M396.6,389.9
		c-1.3,0-2.3,0.5-3.1,1.6s-1.2,2.4-1.2,4.1c0,1.7,0.4,3.1,1.2,4.2c0.8,1,1.9,1.6,3.1,1.6c1.3,0,2.3-0.5,3.1-1.6c0.8-1,1.3-2.4,1.3-4
		c0-1.8-0.4-3.2-1.2-4.3C399.1,390.5,398,389.9,396.6,389.9z"/>
	<path fill="#FFFFFF" d="M416,379.6h3.2l-9.5,28.9h-3.1L416,379.6z"/>
	<path fill="#FFFFFF" d="M434.6,387.3l-0.4,3.7c-0.7-0.3-1.5-0.5-2.1-0.7c-0.6-0.1-1.1-0.2-1.6-0.2c-1.7,0-3.1,0.5-4.3,1.6
		c-1,1-1.6,2.5-1.6,4.3c0,1.7,0.5,3.2,1.6,4.3c1,1.1,2.5,1.6,4.2,1.6c0.6,0,1.3-0.1,1.9-0.3c0.3-0.1,0.7-0.2,1-0.4
		c0.3-0.1,0.7-0.3,1.1-0.6l0.1,3.7c-1.3,0.4-2.3,0.7-3.1,0.9c-0.7,0.1-1.4,0.2-2,0.2c-3,0-5.3-0.9-7.1-2.7c-1.8-1.8-2.7-4.1-2.7-7
		c0-2.7,0.9-4.9,2.8-6.7c1.8-1.8,4.2-2.7,7-2.7c1,0,2.4,0.2,4.1,0.7L434.6,387.3z"/>
	<path fill="#FFFFFF" d="M447.1,386.4c3,0,5.4,0.8,7.1,2.5c1.7,1.7,2.5,4,2.5,7c0,2.9-0.9,5.3-2.6,7c-1.7,1.7-4.1,2.5-7.1,2.5
		s-5.4-0.8-7.1-2.5c-1.7-1.7-2.5-4-2.5-7c0-3,0.8-5.3,2.5-7C441.7,387.2,444.1,386.4,447.1,386.4z M447.1,389.8
		c-1.4,0-2.5,0.6-3.4,1.7c-0.9,1.1-1.3,2.6-1.3,4.4s0.4,3.3,1.3,4.4c0.9,1.1,2,1.6,3.4,1.6c1.4,0,2.6-0.5,3.4-1.6
		c0.8-1.1,1.3-2.6,1.3-4.4s-0.4-3.3-1.3-4.4C449.8,390.3,448.6,389.8,447.1,389.8z"/>
	<path fill="#FFFFFF" d="M478.3,394.3v10.9h-4.7v-9.8c0-1.7-0.3-2.9-0.8-3.7s-1.5-1.2-2.7-1.2c-1.3,0-2.3,0.5-3.1,1.6
		c-0.8,1-1.2,2.4-1.2,4.2v9.1h-4.6V387h4.3v3.3c0.7-1.2,1.6-2.2,2.7-2.8c1.1-0.7,2.4-1,3.8-1c2.1,0,3.7,0.7,4.9,2
		C477.9,389.9,478.3,391.7,478.3,394.3z"/>
	<path fill="#FFFFFF" d="M500.8,394.3v10.9H496v-9.8c0-1.7-0.3-2.9-0.8-3.7s-1.5-1.2-2.7-1.2c-1.3,0-2.3,0.5-3.1,1.6
		c-0.8,1-1.2,2.4-1.2,4.2v9.1h-4.6V387h4.3v3.3c0.7-1.2,1.6-2.2,2.7-2.8c1.1-0.7,2.4-1,3.8-1c2.1,0,3.7,0.7,4.9,2
		C500.3,389.9,500.8,391.7,500.8,394.3z"/>
	<path fill="#FFFFFF" d="M522,395.8v1.5h-12.8c0,0.7,0.1,1.4,0.4,2c0.3,0.6,0.7,1.1,1.3,1.6c1,0.9,2.5,1.3,4.2,1.3
		c1,0,1.9-0.1,2.8-0.3c0.9-0.2,1.7-0.5,2.6-1v3.6c-0.9,0.4-1.8,0.6-2.9,0.8c-1,0.2-2.2,0.3-3.3,0.3c-3,0-5.4-0.9-7.1-2.6
		c-1.7-1.7-2.5-4.2-2.5-7.3c0-2.8,0.8-5,2.5-6.7c1.6-1.6,3.8-2.5,6.5-2.5c2.6,0,4.7,0.8,6.1,2.5C521.3,390.7,522,392.8,522,395.8z
		 M517.8,394.4c0-0.7-0.1-1.4-0.4-2c-0.2-0.6-0.5-1.1-1-1.6c-0.7-0.9-1.7-1.3-2.8-1.3c-1.2,0-2.2,0.4-2.9,1.3
		c-0.7,0.8-1.3,2-1.5,3.6H517.8L517.8,394.4z"/>
	<path fill="#FFFFFF" d="M539.3,387.3l-0.4,3.7c-0.7-0.3-1.5-0.5-2.1-0.7c-0.6-0.1-1.1-0.2-1.6-0.2c-1.7,0-3.1,0.5-4.3,1.6
		c-1,1-1.6,2.5-1.6,4.3c0,1.7,0.5,3.2,1.6,4.3c1,1.1,2.5,1.6,4.2,1.6c0.6,0,1.3-0.1,1.9-0.3c0.3-0.1,0.7-0.2,1-0.4
		c0.3-0.1,0.7-0.3,1.1-0.6l0.1,3.7c-1.3,0.4-2.3,0.7-3.1,0.9c-0.7,0.1-1.4,0.2-2,0.2c-3,0-5.3-0.9-7.1-2.7c-1.8-1.8-2.7-4.1-2.7-7
		c0-2.7,0.9-4.9,2.8-6.7c1.8-1.8,4.2-2.7,7-2.7c1,0,2.4,0.2,4.1,0.7L539.3,387.3z"/>
	<path fill="#FFFFFF" d="M549.6,380.9v5.9h4.4v3.4h-4.4v8c0,1.3,0.2,2.3,0.6,2.9c0.4,0.6,1.1,0.9,2.1,0.9c0.3,0,0.5,0,0.8-0.1
		s0.4-0.1,0.5-0.1c0.2-0.1,0.3-0.1,0.4-0.1l0.1,3.3c-0.5,0.1-1,0.2-1.6,0.3c-0.5,0.1-1.1,0.1-1.6,0.1c-2.2,0-3.7-0.5-4.6-1.6
		c-1-1-1.4-2.8-1.4-5.3v-8.2h-3.6v-3.4h3.8v-4.4L549.6,380.9z"/>
	<path fill="#FFFFFF" d="M566.3,386.4c3,0,5.4,0.8,7.1,2.5c1.7,1.7,2.5,4,2.5,7c0,2.9-0.9,5.3-2.6,7c-1.7,1.7-4.1,2.5-7.1,2.5
		s-5.4-0.8-7.1-2.5c-1.7-1.7-2.5-4-2.5-7c0-3,0.8-5.3,2.5-7C560.8,387.2,563.2,386.4,566.3,386.4z M566.3,389.8
		c-1.4,0-2.5,0.6-3.4,1.7c-0.9,1.1-1.3,2.6-1.3,4.4s0.4,3.3,1.3,4.4c0.9,1.1,2,1.6,3.4,1.6c1.4,0,2.6-0.5,3.4-1.6
		c0.8-1.1,1.3-2.6,1.3-4.4s-0.4-3.3-1.3-4.4C568.8,390.3,567.7,389.8,566.3,389.8z"/>
	<path fill="#FFFFFF" d="M591.4,386.6l-0.1,4.2l-0.7-0.1l-0.8-0.1c-1.6,0-2.7,0.5-3.5,1.6c-0.8,1-1.2,2.5-1.2,4.5v8.5h-4.6V387h4.2
		v3.7c0.6-1.3,1.3-2.4,2.2-3.1c0.9-0.7,1.9-1,3.1-1l0.7,0.1H591.4z"/>
</g>
</svg>
