<?xml version="1.0" encoding="utf-8"?>
<!-- Generator: Adobe Illustrator 18.1.1, SVG Export Plug-In . SVG Version: 6.00 Build 0)  -->
<svg version="1.0" id="Layer_1" xmlns="http://www.w3.org/2000/svg" xmlns:xlink="http://www.w3.org/1999/xlink" x="0px" y="0px"
	 viewBox="0 0 612 792" enable-background="new 0 0 612 792" xml:space="preserve">
<path fill="#009F9E" d="M594.7,528.7H176.1c-4.9,0-9-4-9-9v-32.1c0-4.9,4-9,9-9h418.6c4.9,0,9,4,9,9v32.1
	C603.7,524.7,599.6,528.7,594.7,528.7z"/>
<g>
	<g>
		<path fill="#009F9E" d="M90.4,331.3l-11-43.3h5.9l5.2,21.9c1.3,5.4,2.5,10.8,3.2,15h0.1c0.7-4.3,2-9.4,3.5-15.1l5.8-21.8h5.8
			l5.2,22c1.2,5.2,2.4,10.3,3,14.8h0.1c0.9-4.7,2.1-9.6,3.4-15l5.7-21.8h5.7L120,331.3h-5.8l-5.4-22.6c-1.3-5.5-2.2-9.7-2.8-14.2
			h-0.1c-0.7,4.3-1.7,8.5-3.4,14.2l-6.1,22.6H90.4z"/>
		<path fill="#009F9E" d="M160.1,311h-16.9v15.6H162v4.7h-24.4v-43.3H161v4.7h-17.8v13.7h16.9V311z"/>
		<path fill="#009F9E" d="M168.5,324.5c2.5,1.6,6.1,2.8,10,2.8c5.7,0,9.1-3,9.1-7.4c0-4-2.3-6.4-8.2-8.6c-7-2.5-11.5-6.1-11.5-12.3
			c0-6.7,5.6-11.8,14-11.8c4.4,0,7.6,1,9.6,2.1l-1.6,4.6c-1.4-0.7-4.3-2-8.2-2c-5.9,0-8.2,3.5-8.2,6.5c0,4,2.6,6.1,8.6,8.3
			c7.3,2.8,11,6.4,11,12.7c0,6.7-4.9,12.4-15.1,12.4c-4.2,0-8.8-1.2-11-2.8L168.5,324.5z"/>
		<path fill="#009F9E" d="M209.2,292.8h-13.2v-4.7h32.1v4.7h-13.3v38.5h-5.6L209.2,292.8L209.2,292.8z"/>
		<path fill="#009F9E" d="M245.8,324.5c2.5,1.6,6.1,2.8,10,2.8c5.7,0,9.1-3,9.1-7.4c0-4-2.3-6.4-8.2-8.6c-7-2.5-11.5-6.1-11.5-12.3
			c0-6.7,5.6-11.8,14-11.8c4.4,0,7.6,1,9.6,2.1l-1.6,4.6c-1.4-0.7-4.3-2-8.2-2c-5.9,0-8.2,3.5-8.2,6.5c0,4,2.6,6.1,8.6,8.3
			c7.3,2.8,11,6.4,11,12.7c0,6.7-4.9,12.4-15.1,12.4c-4.2,0-8.8-1.2-11-2.8L245.8,324.5z"/>
		<path fill="#009F9E" d="M285.2,317.8l-4.5,13.6h-5.8l14.7-43.3h6.7l14.8,43.3h-6l-4.6-13.6H285.2z M299.4,313.3l-4.3-12.4
			c-1-2.8-1.6-5.4-2.2-7.9h-0.1c-0.7,2.5-1.3,5.2-2.2,7.9l-4.2,12.4H299.4z"/>
		<path fill="#009F9E" d="M317.6,288.1h5.6v38.6h18.5v4.7h-24.1L317.6,288.1L317.6,288.1z"/>
		<path fill="#009F9E" d="M370.3,311h-16.9v15.6h18.7v4.7h-24.3v-43.3h23.4v4.7h-17.8v13.7h16.9L370.3,311L370.3,311z"/>
		<path fill="#009F9E" d="M415.9,312.4c-0.3-6.1-0.7-13.3-0.7-18.7H415c-1.5,5.1-3.3,10.5-5.5,16.4l-7.6,21h-4.3l-6.8-20.6
			c-2-6.1-3.8-11.7-5-16.9h-0.1c-0.1,5.4-0.4,12.7-0.8,19.1l-1.1,18.6h-5.3l3-43.3h7.1l7.3,21c1.8,5.3,3.3,10.1,4.3,14.6h0.2
			c1.1-4.3,2.6-9.1,4.6-14.6l7.7-20.9h7.1l2.7,43.3h-5.5L415.9,312.4z"/>
	</g>
	<g>
		<g>
			<path fill="#009F9E" d="M67.9,386.1c-0.4,2.2-1,5.2-1.6,9.2c-0.6,4-1,7-1.3,9.1c-8,1.2-15.1,1.8-21.4,1.8
				c-6.1,0-11.7-0.7-16.9-2.2s-10-4-14.4-7.5c-4.3-3.4-7.5-7.5-9.4-12.2c-1.9-4.6-2.8-9.9-2.8-15.7c0-6.7,1.3-12.9,3.8-18.3
				s6.1-9.9,10.9-13.5c4.7-3.6,9.9-6.2,15.6-7.7c5.6-1.6,11.5-2.3,17.5-2.3c5.5,0,12.4,0.7,20.5,2.1l0.1,4.7c0.1,2,0.1,4.3,0.3,6.8
				l0.4,6.4c-4.3-1-7.9-1.7-10.6-2.1c-2.7-0.4-5.2-0.5-7.6-0.5c-5,0-9.6,1-13.6,3s-7.2,4.9-9.5,8.8c-2.3,3.8-3.4,8.1-3.4,12.8
				c0,4.3,1,7.9,2.9,10.9c1.9,3.1,4.6,5.4,7.9,7c3.3,1.6,7.4,2.5,12.3,2.5c2.6,0,5.5-0.2,8.7-0.7C59.2,388.1,63.1,387.3,67.9,386.1z
				"/>
		</g>
		<g>
			<path fill="#009F9E" d="M111.3,346c4.6,0,9.1,0.7,13.4,2.1c4.3,1.4,7.9,3.4,10.9,6.1c2.9,2.7,5.2,5.8,6.5,9.4
				c1.4,3.6,2.1,7.4,2.1,11.5c0,4-0.6,7.8-1.9,11.4c-1.3,3.6-3.4,7-6.4,10.2c-3,3.1-6.8,5.5-11.4,7.1c-4.6,1.6-9.5,2.3-14.7,2.3
				c-4.7,0-9.3-0.7-13.7-2.1c-4.3-1.3-8-3.4-10.9-6.1c-2.9-2.6-5.2-5.8-6.6-9.5c-1.5-3.7-2.2-7.6-2.2-11.7c0-4,0.7-7.9,2.2-11.7
				c1.4-3.7,3.7-7,6.8-10c3.1-2.9,7-5.2,11.6-6.8C101.5,346.8,106.3,346,111.3,346z M110.9,362.4c-2.4,0-4.5,0.6-6.4,1.9
				c-1.9,1.2-3.3,3.1-4.3,5.4c-1,2.4-1.4,4.9-1.4,7.8c0,4.1,1,7.3,3.1,9.4c2,2.2,4.6,3.3,7.7,3.3c2.3,0,4.5-0.6,6.4-1.9
				c1.9-1.3,3.3-3.1,4.3-5.5c1-2.5,1.4-5.1,1.4-7.9c0-2.3-0.4-4.4-1.1-6.3c-0.7-1.9-1.9-3.4-3.7-4.5
				C115.2,363,113.2,362.4,110.9,362.4z"/>
		</g>
		<g>
			<path fill="#009F9E" d="M152,404.7c1-8.5,1.9-17.9,2.5-28.2c0.6-10.3,0.9-20,1-29.2c4.5,0.1,8.4,0.1,11.6,0.1
				c3.7,0,7.4,0,10.9-0.1l-0.5,7.6c1.2-1.3,2.3-2.5,3.2-3.3c0.9-0.8,2-1.6,3.4-2.3c1.3-0.7,2.8-1.4,4.3-1.9s3.1-0.9,4.9-1.1
				c1.8-0.3,3.7-0.4,5.6-0.4c2.7,0,5.3,0.3,7.9,0.9c2.5,0.6,4.7,1.4,6.4,2.5c1.7,1,3.1,2.4,4.3,4c1.1,1.6,1.9,3.3,2.3,5.2
				c0.4,1.8,0.5,3.7,0.5,5.7c0,1.4-0.1,4.5-0.4,9.2l-1,20.3c-0.2,4-0.3,7.7-0.3,11.1c-3.7-0.1-7.3-0.1-10.6-0.1
				c-4.4,0-8.5,0.1-12.1,0.1c0.4-3.4,0.7-8.5,1-15.2c0.4-6.7,0.6-11.5,0.6-14.2c0-4.2-0.8-7.2-2.5-8.8c-1.6-1.6-3.7-2.5-6.1-2.5
				c-2.2,0-4.2,0.7-6.1,2.1s-3.4,3.5-4.5,6.2c-1,2.7-1.8,7.2-2.2,13.4c-0.4,6.2-0.7,12.5-0.9,19c-3.7-0.1-7.4-0.1-10.9-0.1
				C160.4,404.7,156.3,404.7,152,404.7z"/>
		</g>
		<g>
			<path fill="#009F9E" d="M230.1,404.7c1-8.5,1.9-17.9,2.5-28.2c0.6-10.3,0.9-20,1-29.2c4.5,0.1,8.4,0.1,11.6,0.1
				c3.7,0,7.4,0,10.9-0.1l-0.5,7.6c1.2-1.3,2.3-2.5,3.2-3.3c0.9-0.8,2-1.6,3.4-2.3s2.8-1.4,4.3-1.9s3.1-0.9,4.9-1.1
				c1.8-0.3,3.7-0.4,5.6-0.4c2.7,0,5.3,0.3,7.9,0.9c2.5,0.6,4.7,1.4,6.4,2.5s3.1,2.4,4.3,4c1.1,1.6,1.9,3.3,2.3,5.2
				c0.4,1.8,0.5,3.7,0.5,5.7c0,1.4-0.1,4.5-0.4,9.2l-1,20.3c-0.2,4-0.3,7.7-0.3,11.1c-3.7-0.1-7.3-0.1-10.6-0.1
				c-4.4,0-8.5,0.1-12.1,0.1c0.4-3.4,0.7-8.5,1-15.2c0.4-6.7,0.6-11.5,0.6-14.2c0-4.2-0.8-7.2-2.5-8.8c-1.6-1.6-3.7-2.5-6.1-2.5
				c-2.2,0-4.2,0.7-6.1,2.1c-1.9,1.4-3.4,3.5-4.5,6.2c-1,2.7-1.8,7.2-2.2,13.4c-0.4,6.2-0.7,12.5-0.9,19c-3.7-0.1-7.4-0.1-10.9-0.1
				C238.6,404.7,234.4,404.7,230.1,404.7z"/>
		</g>
		<g>
			<path fill="#009F9E" d="M364.4,387.8c-0.4,2.2-1.4,7.6-2.8,16.3c-4.3,0.8-8,1.4-10.9,1.7s-5.9,0.4-9,0.4c-4.4,0-8.5-0.3-12.3-0.9
				s-7-1.7-9.7-3.3c-2.7-1.6-5-3.5-6.8-5.8c-1.8-2.3-3.2-5.1-4.2-8.3c-1-3.2-1.4-6.5-1.4-9.9c0-4.8,1-9.4,2.8-14
				c1.9-4.6,4.3-8.2,7.3-10.7c3-2.5,6.4-4.4,10.4-5.5c3.9-1,7.9-1.6,12.1-1.6c4.3,0,8.3,0.5,12.2,1.5s7.2,2.7,9.8,5.2
				c2.7,2.5,4.6,5.2,5.8,8.4c1.1,3.1,1.7,6.4,1.7,10c0,2.1-0.2,4.5-0.7,7.1l-39.4,0.1c-0.1,0.6-0.1,1.1-0.1,1.6c0,4,1.4,7,4.3,8.9
				c2.8,1.9,6.4,2.8,10.6,2.8c2.5,0,5.3-0.3,8.5-0.9C355.8,390.1,359.7,389.1,364.4,387.8z M329.9,369.6h18.5
				c0.1-0.6,0.1-1.2,0.1-1.6c0-1.9-0.4-3.6-1-5c-0.7-1.3-1.6-2.4-3-3c-1.3-0.6-2.8-1-4.3-1c-1.1,0-2.2,0.1-3.2,0.5
				c-1,0.4-2,0.9-2.8,1.6c-0.8,0.7-1.6,1.5-2.1,2.4c-0.5,0.9-1,1.8-1.2,2.6C330.4,366.9,330.1,368.1,329.9,369.6z"/>
		</g>
		<g>
			<path fill="#009F9E" d="M424.7,386.8c-0.1,1.5-0.6,4.3-1.3,8.2l-1.4,9c-5.8,1.4-11.6,2.1-17.2,2.1c-4,0-7.6-0.4-10.7-1.2
				c-3.6-1-6.9-2.7-9.7-5.2c-2.9-2.5-5.1-5.5-6.4-9.1c-1.6-4-2.4-8.6-2.4-13.7c0-4.6,0.7-9.1,2.3-13.4c1.6-4.3,3.9-7.9,7-10.6
				c3.1-2.8,6.4-4.6,10.2-5.6s7.9-1.4,12.4-1.4c2.6,0,5.3,0.1,8,0.4c2.7,0.3,6,0.9,10,1.8l0.1,1.3c0.1,1.3,0.2,2.7,0.2,4.1
				c0.1,1.4,0.1,3.6,0.4,6.7l0.3,5c-5.3-1.9-10.1-2.8-14.2-2.8c-2.9,0-5.5,0.6-7.8,1.7c-2.2,1.1-3.9,2.8-4.9,4.9
				c-1,2.2-1.6,4.6-1.6,7.5s0.4,5.3,1.4,7.3c1,1.9,2.5,3.4,4.6,4.3s4.4,1.4,6.9,1.4c1.3,0,2.8-0.1,4.5-0.4c1.7-0.2,3.2-0.5,4.6-0.9
				C421,388.1,422.7,387.6,424.7,386.8z"/>
		</g>
		<g>
			<path fill="#009F9E" d="M476.8,388.2c-0.7,3.1-1.3,6.2-1.7,9.2l-1.2,6.8c-3.7,0.8-6.6,1.3-8.7,1.6c-2.1,0.2-4.1,0.3-6.1,0.3
				c-3.1,0-6-0.3-8.5-0.8c-2.5-0.5-4.5-1.5-6.1-3c-1.6-1.4-2.8-3.1-3.4-4.9c-0.6-1.9-0.9-3.8-0.9-5.9c0-0.4,0-1,0.1-2
				c0-1,0.1-3.1,0.4-6.4l1.2-19.4h-8.8c0.1-2.5,0.4-6,0.5-10.2l0.1-5.2h9.3c0.2-1.7,0.5-5.5,0.8-11.3l9.6-1.9
				c1.7-0.3,5.5-1.2,11.2-2.5c-0.3,4.9-0.4,10.2-0.6,15.8H477c-0.3,7.8-0.4,12.9-0.4,15.4h-12.9l-0.7,14c-0.1,2.1-0.1,3.4-0.1,4
				c0,1.8,0.2,3.3,0.6,4.5c0.4,1.2,1,2,2.1,2.5c1,0.5,2.1,0.7,3.3,0.7c0.9,0,1.8-0.1,2.8-0.2C472.6,389.3,474.4,388.9,476.8,388.2z"
				/>
		</g>
		<g>
			<path fill="#009F9E" d="M568.7,404.7l1.7-25l0.5-14.3c0-2.5,0.1-5.2,0.1-7.9s0-6.1-0.1-10.2c4.5,0.1,8.1,0.1,10.8,0.1
				c3.1,0,6.7,0,10.7-0.1l-0.2,6.4c1.4-1.6,2.6-2.8,3.6-3.7c0.9-0.8,2-1.5,3.2-2.2c1.2-0.7,2.5-1.1,3.7-1.4c1.3-0.3,2.7-0.4,4.1-0.4
				c1.3,0,2.8,0.1,4.5,0.5c0,4,0.1,7.4,0.3,10.1l0.4,8.6c-2-0.6-4-0.9-5.8-0.9c-2.2,0-4.2,0.3-5.8,1c-1.6,0.7-3.1,1.6-4.3,3
				s-2.2,3-3,4.9c-0.7,1.9-1.3,5.1-1.6,9.4c-0.3,4.3-0.4,9.2-0.4,14.8c0,1.9,0.1,4.3,0.2,7.3c-3.6-0.1-7.3-0.1-10.9-0.1
				C576.7,404.7,572.8,404.7,568.7,404.7z"/>
		</g>
		<g>
			<path fill="#009F9E" d="M551.4,340.9c-2.2-1.3-4.6-2.9-4.3-3.5c0.4-1.2,1.2-2.4,2.9-3.4c1.3-0.8,2.5-1.6,1.8-3.1
				c-1.3-2.5-4-5.7-5.9-7.3c-0.6-0.6-1.8-0.6-2.8-0.6c-1.9,0-4,0.9-5.5,1.9c2.3-6.9,9.7-19.8,21.1-37.4c4.9-7.4,7.8-12.3,7.8-16
				c0-3-1.9-5.4-6.3-8c-1.5-0.9-5,2.2-5,3.5c0,0.1,0.1,0.4,0.5,0.4c0.7,0,1.1,0.4,1.1,1.1c0,2.2-2.4,7.6-5.8,14.5
				c-6.8,13.6-17.2,34.1-17.2,43.4c0,0.3,0,0.5,0.1,0.7c-29.2,19.3-46.7,44.4-46.7,62.6c0,4.6,1,8.5,3.1,12.1
				c4.9,7,9.5,8.5,18.5,8.5c2.4,0,6.5-0.6,9.1-1.3c25.3-5.3,46.5-27.3,46.5-46.6C564.5,354.4,560.7,346.7,551.4,340.9z M519.9,400.4
				c-5.1,2.2-9.4,3.1-12.8,3.1c-6.7,0-10.5-4.6-9.4-12.1c1.6-14.5,20.2-34.6,33.1-44.5c0.1,0.6,0.4,1.2,0.9,1.9
				c0.9,1.5,3.1,2.8,5,2.8c1.3,0,2-0.5,3.4-2.2c1.2-1.6,2.2-5.2,2.5-7.9c2.5,0.9,7,3.7,8.7,4.6c4.9,2.9,7.3,7.5,7.3,13
				C558.4,372.3,544.5,389.9,519.9,400.4z"/>
		</g>
	</g>
	<g>
		<g>
			<path fill="#009F9E" d="M22.7,443.6c1.6,0.8,4.1,1.6,6.7,1.6c2.8,0,4.3-1.1,4.3-2.9c0-1.6-1.3-2.6-4.5-3.7
				c-4.4-1.6-7.3-4-7.3-7.9c0-4.6,3.8-8,10.1-8c3.1,0,5.2,0.6,6.8,1.3l-1.3,4.9c-1-0.5-3-1.3-5.5-1.3c-2.6,0-3.9,1.2-3.9,2.5
				c0,1.7,1.5,2.5,4.9,3.8c4.7,1.7,6.9,4.2,6.9,8c0,4.5-3.4,8.3-10.7,8.3c-3.1,0-6.1-0.8-7.6-1.6L22.7,443.6z"/>
		</g>
		<g>
			<path fill="#009F9E" d="M58.1,443l-1.9,6.9h-6.3l8.2-26.8H66l8.3,26.8h-6.5l-2.1-6.9H58.1z M64.9,438.4l-1.6-5.7
				c-0.4-1.6-0.9-3.6-1.3-5.2h-0.1c-0.4,1.6-0.8,3.6-1.2,5.2l-1.6,5.7H64.9z"/>
		</g>
		<g>
			<path fill="#009F9E" d="M85.9,423.1h6v21.7h10.6v5.1H85.9C85.9,449.9,85.9,423.1,85.9,423.1z"/>
		</g>
		<g>
			<path fill="#009F9E" d="M130,438.5h-9.8v6.4h11v4.9h-17V423h16.5v4.9h-10.4v5.5h9.8L130,438.5L130,438.5z"/>
		</g>
		<g>
			<path fill="#009F9E" d="M165.9,439.6c-0.1-3.2-0.2-7-0.2-11h-0.1c-0.9,3.4-1.9,7.2-3,10.3l-3.2,10.4h-4.7l-2.8-10.3
				c-0.9-3.1-1.7-7-2.4-10.5h-0.2c-0.1,3.6-0.3,7.7-0.4,11.1l-0.5,10.2h-5.6l1.7-26.8h8.1l2.6,9c0.9,3.1,1.6,6.4,2.2,9.5h0.1
				c0.7-3.1,1.6-6.6,2.5-9.6l2.8-8.9h7.9l1.4,26.8h-5.8L165.9,439.6z"/>
		</g>
		<g>
			<path fill="#009F9E" d="M204.9,423.1h6v11.8h0.1c0.6-1,1.2-1.9,1.9-2.9l6-8.9h7.5l-8.8,11.4l9.3,15.4h-7l-6.6-11.5l-2.2,2.8v8.7
				h-6L204.9,423.1L204.9,423.1z"/>
		</g>
		<g>
			<path fill="#009F9E" d="M253.1,438.5h-9.8v6.4h11v4.9h-17V423h16.5v4.9h-10.4v5.5h9.8L253.1,438.5L253.1,438.5z"/>
		</g>
		<g>
			<path fill="#009F9E" d="M272.4,423.1v26.8h-6v-26.8H272.4z"/>
		</g>
		<g>
			<path fill="#009F9E" d="M283.9,446.6l12.7-18.4v-0.1H285v-5h19.4v3.5L292,444.7v0.1h12.7v5h-20.8V446.6L283.9,446.6z"/>
		</g>
		<g>
			<path fill="#009F9E" d="M332.4,438.5h-9.8v6.4h11v4.9h-17V423H333v4.9h-10.4v5.5h9.8L332.4,438.5L332.4,438.5z"/>
		</g>
		<g>
			<path fill="#009F9E" d="M345.5,423.5c1.9-0.4,4.8-0.6,8-0.6c4,0,6.7,0.6,8.6,2.2c1.6,1.3,2.5,3.1,2.5,5.6c0,3.4-2.4,5.7-4.7,6.5
				v0.1c1.9,0.7,2.9,2.5,3.6,4.9c0.8,3.1,1.6,6.5,2.2,7.6h-6.2c-0.4-0.7-1-2.9-1.8-6.2c-0.7-3.4-1.9-4.3-4.4-4.3h-1.8v10.5h-6
				L345.5,423.5L345.5,423.5z M351.5,434.9h2.4c3,0,4.8-1.5,4.8-3.8c0-2.4-1.6-3.7-4.4-3.7c-1.5,0-2.3,0.1-2.7,0.2L351.5,434.9
				L351.5,434.9z"/>
		</g>
		<g>
			<path fill="#009F9E" d="M398.2,428.1H391V423h20.5v5.1h-7.3v21.7h-6L398.2,428.1L398.2,428.1z"/>
		</g>
		<g>
			<path fill="#009F9E" d="M422.7,423.5c1.9-0.4,4.8-0.6,8-0.6c4,0,6.7,0.6,8.6,2.2c1.6,1.3,2.5,3.1,2.5,5.6c0,3.4-2.4,5.7-4.7,6.5
				v0.1c1.9,0.7,2.9,2.5,3.6,4.9c0.8,3.1,1.6,6.5,2.2,7.6h-6.2c-0.4-0.7-1-2.9-1.8-6.2c-0.7-3.4-1.9-4.3-4.4-4.3h-1.8v10.5h-6
				L422.7,423.5L422.7,423.5z M428.7,434.9h2.4c3,0,4.8-1.5,4.8-3.8c0-2.4-1.6-3.7-4.4-3.7c-1.5,0-2.3,0.1-2.8,0.2V434.9z"/>
		</g>
		<g>
			<path fill="#009F9E" d="M460.7,443l-1.9,6.9h-6.3l8.2-26.8h7.9l8.3,26.8h-6.5l-2.1-6.9H460.7z M467.5,438.4l-1.6-5.7
				c-0.4-1.6-0.9-3.6-1.3-5.2h-0.1c-0.4,1.6-0.8,3.6-1.2,5.2l-1.6,5.7H467.5z"/>
		</g>
		<g>
			<path fill="#009F9E" d="M488.5,449.8V423h7l5.5,9.8c1.6,2.8,3.1,6.1,4.3,9.1h0.1c-0.4-3.5-0.4-7.1-0.4-11.2V423h5.5v26.8h-6.4
				l-5.7-10.3c-1.6-2.9-3.4-6.3-4.6-9.4h-0.1c0.2,3.6,0.3,7.3,0.3,11.7v8L488.5,449.8L488.5,449.8z"/>
		</g>
		<g>
			<path fill="#009F9E" d="M524.1,443.6c1.6,0.8,4.1,1.6,6.7,1.6c2.8,0,4.3-1.1,4.3-2.9c0-1.6-1.3-2.6-4.5-3.7
				c-4.4-1.6-7.3-4-7.3-7.9c0-4.6,3.8-8,10.1-8c3.1,0,5.2,0.6,6.8,1.3l-1.3,4.9c-1-0.5-3-1.3-5.5-1.3c-2.6,0-3.9,1.2-3.9,2.5
				c0,1.7,1.5,2.5,4.9,3.8c4.7,1.7,6.9,4.2,6.9,8c0,4.5-3.4,8.3-10.7,8.3c-3.1,0-6.1-0.8-7.6-1.6L524.1,443.6z"/>
		</g>
		<g>
			<path fill="#009F9E" d="M559.3,423.1v26.8h-6v-26.8H559.3z"/>
		</g>
		<g>
			<path fill="#009F9E" d="M577.7,428.1h-7.2V423H591v5.1h-7.3v21.7h-6L577.7,428.1L577.7,428.1z"/>
		</g>
		<g>
			<rect x="183.7" y="434" fill="#009F9E" width="9.3" height="4.9"/>
		</g>
	</g>
</g>
<rect x="178.3" y="487.3" fill="none" width="425.4" height="38.2"/>
<g enable-background="new    ">
	<path fill="#FFFFFF" d="M190.3,512c0.7,0,1.3-0.1,1.9-0.2s1.1-0.4,1.5-0.6c0.4-0.3,0.8-0.5,1.2-0.9s0.6-0.7,0.9-1
		c0.1,0.1,0.2,0.2,0.3,0.4s0.2,0.4,0.2,0.6c0,0.5-0.2,1-0.5,1.5s-0.7,1-1.3,1.4c-0.6,0.4-1.3,0.7-2.2,1c-0.9,0.2-1.9,0.4-3,0.4
		c-1.4,0-2.7-0.2-3.8-0.5c-1.1-0.4-2.1-0.9-2.9-1.6c-0.8-0.7-1.4-1.5-1.8-2.5c-0.4-1-0.6-2.1-0.6-3.4c0-1.2,0.1-2.4,0.4-3.5
		s0.7-2.3,1.2-3.3s1.2-2,2-2.9s1.7-1.6,2.6-2.3s2.1-1.1,3.2-1.5s2.4-0.5,3.8-0.5c1,0,1.9,0.1,2.6,0.3s1.4,0.4,1.9,0.7
		c0.5,0.3,0.9,0.7,1.1,1.1s0.4,0.9,0.4,1.5c0,0.4-0.1,0.8-0.3,1.2s-0.5,0.6-0.9,0.8c-0.4,0.2-0.8,0.4-1.3,0.5s-1.1,0.2-1.7,0.2
		c0-0.4,0-0.9-0.1-1.4s-0.2-1-0.4-1.4s-0.4-0.8-0.8-1.1s-0.8-0.4-1.3-0.4c-0.8,0-1.5,0.2-2.2,0.5s-1.3,0.9-1.8,1.5
		c-0.6,0.6-1,1.3-1.5,2.2s-0.8,1.7-1.1,2.6s-0.5,1.8-0.7,2.8c-0.2,1-0.2,1.9-0.2,2.8c0,1.7,0.4,3,1.3,4S188.6,512,190.3,512z"/>
	<path fill="#FFFFFF" d="M209.4,511.4c0-0.4,0-0.9,0.1-1.5s0.2-1.3,0.4-2l0.5-2.4c0-0.2,0.1-0.4,0.2-0.7s0.1-0.6,0.2-0.9
		c0.1-0.3,0.1-0.6,0.1-0.9c0-0.3,0.1-0.6,0.1-0.8c0-0.2,0-0.4-0.1-0.6s-0.1-0.4-0.2-0.6s-0.2-0.3-0.4-0.4s-0.4-0.2-0.6-0.2
		c-0.3,0-0.7,0.1-1,0.3c-0.3,0.2-0.7,0.5-1,0.9c-0.3,0.4-0.6,0.8-0.9,1.3c-0.3,0.5-0.5,1-0.8,1.5s-0.4,1-0.6,1.5s-0.3,0.9-0.4,1.3
		l-1.6,7H199l4-18.7c0-0.1,0.1-0.3,0.1-0.4s0.1-0.3,0.1-0.4s0-0.2,0-0.3s0-0.2,0-0.2c0-0.3,0-0.5-0.1-0.7s-0.2-0.3-0.3-0.4
		s-0.3-0.1-0.5-0.2s-0.4,0-0.7,0h-0.6l0.3-1.6h7.3L207,498c-0.1,0.3-0.2,0.6-0.3,1s-0.2,0.7-0.3,1.1c-0.1,0.4-0.2,0.8-0.3,1.2h0.2
		c0.4-0.6,0.8-1.1,1.2-1.6s0.8-0.8,1.3-1.1s1-0.5,1.5-0.6s1.2-0.2,1.8-0.2c0.6,0,1.2,0.1,1.6,0.3s0.8,0.4,1.1,0.8s0.5,0.7,0.6,1.1
		c0.1,0.4,0.2,0.9,0.2,1.3c0,0.3,0,0.5-0.1,0.8s-0.1,0.6-0.1,0.9s-0.1,0.6-0.2,0.9s-0.1,0.6-0.2,0.8l-0.7,3.2
		c-0.1,0.5-0.2,1.1-0.3,1.5s-0.1,0.9-0.1,1.3c0,0.4,0.1,0.8,0.3,1s0.4,0.4,0.8,0.4c0.3,0,0.6-0.1,0.9-0.2s0.6-0.3,0.9-0.5l0.7,1
		c-0.2,0.3-0.5,0.5-0.8,0.8c-0.3,0.2-0.6,0.5-1,0.7s-0.8,0.4-1.3,0.5s-1,0.2-1.5,0.2c-1.1,0-2-0.3-2.6-0.8
		C209.7,513.2,209.4,512.4,209.4,511.4z"/>
	<path fill="#FFFFFF" d="M227,512.2c0.5,0,1-0.1,1.4-0.2s0.8-0.3,1.2-0.6s0.7-0.5,1-0.8c0.3-0.3,0.6-0.6,0.8-0.9
		c0.1,0.1,0.2,0.3,0.3,0.6c0.1,0.2,0.1,0.5,0.1,0.7c0,0.4-0.1,0.7-0.4,1.1s-0.6,0.8-1.1,1.1c-0.5,0.3-1.1,0.6-1.8,0.8
		c-0.7,0.2-1.6,0.3-2.7,0.3c-0.9,0-1.8-0.1-2.6-0.4s-1.5-0.6-2.1-1.2c-0.6-0.5-1.1-1.2-1.4-1.9c-0.4-0.8-0.5-1.7-0.5-2.7
		c0-0.7,0.1-1.5,0.3-2.3s0.5-1.6,0.9-2.4c0.4-0.8,0.9-1.5,1.4-2.2s1.2-1.3,2-1.8s1.6-0.9,2.5-1.3c0.9-0.3,2-0.5,3.1-0.5
		c1.4,0,2.5,0.3,3.3,0.9c0.8,0.6,1.2,1.5,1.2,2.6c0,0.8-0.2,1.6-0.7,2.3s-1.1,1.4-1.9,2c-0.8,0.6-1.7,1-2.8,1.3s-2.3,0.5-3.6,0.5
		c-0.2,0-0.3,0-0.5,0s-0.4,0-0.6,0c0,0.2,0,0.4-0.1,0.6c0,0.2,0,0.4,0,0.5c0,1.2,0.3,2.1,0.8,2.7C225.1,511.9,226,512.2,227,512.2z
		 M228.1,499.6c-0.5,0-1,0.2-1.4,0.5c-0.4,0.4-0.8,0.8-1.2,1.4s-0.7,1.2-0.9,2s-0.4,1.4-0.6,2.2h0.3c0.7,0,1.4-0.1,2.1-0.3
		s1.2-0.5,1.7-0.8c0.5-0.4,0.8-0.8,1.1-1.3s0.4-1.1,0.4-1.7c0-0.6-0.1-1.1-0.4-1.4S228.6,499.6,228.1,499.6z"/>
	<path fill="#FFFFFF" d="M237.9,500.8c0-0.4-0.1-0.6-0.4-0.8c-0.2-0.2-0.6-0.2-1.2-0.2h-0.5l0.3-1.6h6.6l-0.6,4.1h0.1
		c0.3-0.7,0.7-1.4,1-1.9s0.7-1,1.1-1.4s0.9-0.7,1.4-0.8c0.5-0.2,1.1-0.3,1.8-0.3c1.1,0,1.9,0.2,2.4,0.6s0.8,1,0.8,1.7
		c0,1-0.3,1.8-0.9,2.3s-1.5,0.8-2.6,0.8c0-0.4,0-0.9-0.1-1.2c0-0.4-0.1-0.7-0.2-0.9s-0.3-0.5-0.5-0.6s-0.4-0.2-0.7-0.2
		s-0.6,0.1-0.9,0.3c-0.3,0.2-0.6,0.5-0.9,0.9s-0.6,0.9-0.9,1.4c-0.3,0.6-0.6,1.2-0.9,1.8s-0.5,1.3-0.7,2s-0.4,1.4-0.6,2.2l-1.1,5.2
		h-4.5l2.5-12.1c0-0.2,0.1-0.4,0.1-0.7S237.9,501,237.9,500.8z"/>
	<path fill="#FFFFFF" d="M254.4,500.8c0-0.4-0.1-0.6-0.4-0.8c-0.2-0.2-0.6-0.2-1.2-0.2h-0.5l0.3-1.6h6.6l-0.6,4.1h0.1
		c0.3-0.7,0.7-1.4,1-1.9s0.7-1,1.1-1.4s0.9-0.7,1.4-0.8c0.5-0.2,1.1-0.3,1.8-0.3c1.1,0,1.9,0.2,2.4,0.6s0.8,1,0.8,1.7
		c0,1-0.3,1.8-0.9,2.3s-1.5,0.8-2.6,0.8c0-0.4,0-0.9-0.1-1.2c0-0.4-0.1-0.7-0.2-0.9s-0.3-0.5-0.5-0.6s-0.4-0.2-0.7-0.2
		s-0.6,0.1-0.9,0.3c-0.3,0.2-0.6,0.5-0.9,0.9s-0.6,0.9-0.9,1.4c-0.3,0.6-0.6,1.2-0.9,1.8s-0.5,1.3-0.7,2s-0.4,1.4-0.6,2.2l-1.1,5.2
		h-4.5l2.5-12.1c0-0.2,0.1-0.4,0.1-0.7S254.4,501,254.4,500.8z"/>
	<path fill="#FFFFFF" d="M276.2,498.1l-2.1,9.8c-0.1,0.5-0.2,1.1-0.3,1.5s-0.1,0.9-0.1,1.3c0,0.4,0.1,0.8,0.3,1s0.4,0.4,0.8,0.4
		c0.3,0,0.6-0.1,0.9-0.2s0.6-0.3,0.9-0.5l0.7,1c-0.2,0.3-0.5,0.5-0.8,0.8c-0.3,0.2-0.6,0.5-1,0.7s-0.8,0.4-1.3,0.5s-1,0.2-1.5,0.2
		c-1.2,0-2-0.3-2.7-0.8c-0.6-0.5-0.9-1.3-0.9-2.3c0-0.4,0-0.9,0.1-1.5s0.2-1.3,0.4-2l1.2-5.6c0-0.1,0.1-0.3,0.1-0.4s0-0.3,0.1-0.4
		c0-0.1,0-0.2,0-0.3s0-0.2,0-0.2c0-0.3,0-0.5-0.1-0.7s-0.2-0.3-0.3-0.4s-0.3-0.1-0.5-0.2s-0.4,0-0.7,0h-0.5l0.3-1.6H276.2z
		 M274.1,495.4c-0.3,0-0.6,0-0.9-0.1c-0.3-0.1-0.5-0.2-0.7-0.3s-0.4-0.4-0.5-0.6s-0.2-0.5-0.2-0.8c0-0.4,0.1-0.8,0.2-1.1
		c0.2-0.3,0.4-0.6,0.6-0.8s0.6-0.3,0.9-0.4s0.7-0.1,1.1-0.1c0.3,0,0.6,0,0.9,0.1s0.5,0.2,0.8,0.3s0.4,0.4,0.5,0.6
		c0.1,0.2,0.2,0.5,0.2,0.9c0,0.4-0.1,0.8-0.2,1.1c-0.2,0.3-0.4,0.6-0.6,0.8c-0.3,0.2-0.6,0.3-0.9,0.4S274.5,495.4,274.1,495.4z"/>
	<path fill="#FFFFFF" d="M278.9,508.2c0-0.8,0.1-1.5,0.3-2.3s0.4-1.6,0.8-2.4s0.8-1.5,1.3-2.2c0.5-0.7,1.2-1.3,1.9-1.8
		s1.6-0.9,2.5-1.2s1.9-0.5,3.1-0.5c0.9,0,1.7,0.1,2.4,0.4s1.4,0.6,2,1.1s1,1.2,1.3,2s0.5,1.8,0.5,2.9c0,0.7-0.1,1.5-0.2,2.3
		s-0.4,1.6-0.8,2.3s-0.8,1.5-1.3,2.2s-1.2,1.3-1.9,1.8s-1.5,0.9-2.5,1.3s-1.9,0.5-3.1,0.5c-0.9,0-1.8-0.1-2.6-0.4
		c-0.8-0.3-1.5-0.6-2-1.2c-0.6-0.5-1-1.2-1.3-2S278.9,509.3,278.9,508.2z M285.8,512.4c0.5,0,1-0.2,1.5-0.5c0.4-0.3,0.8-0.7,1.2-1.2
		s0.6-1.1,0.9-1.7s0.5-1.3,0.6-2s0.3-1.4,0.4-2c0.1-0.7,0.1-1.3,0.1-1.8c0-1.2-0.2-2-0.6-2.5s-1-0.8-1.7-0.8c-0.5,0-1,0.1-1.4,0.4
		s-0.8,0.7-1.2,1.2s-0.7,1-0.9,1.7c-0.3,0.6-0.5,1.3-0.7,2s-0.3,1.3-0.4,2s-0.1,1.3-0.1,1.8c0,1.2,0.2,2.1,0.6,2.6
		S285.1,512.4,285.8,512.4z"/>
	<path fill="#FFFFFF" d="M304.4,512.1c0.5,0,0.9-0.1,1.3-0.2s0.7-0.3,1.1-0.6l0.7,1.1c-0.3,0.3-0.7,0.6-1,0.8
		c-0.4,0.3-0.8,0.5-1.2,0.7c-0.4,0.2-0.9,0.3-1.4,0.5c-0.5,0.1-1,0.2-1.6,0.2c-0.5,0-1.1-0.1-1.5-0.2c-0.5-0.1-0.9-0.4-1.2-0.6
		c-0.4-0.3-0.6-0.7-0.8-1.1s-0.3-1-0.3-1.6c0-0.2,0-0.4,0-0.6s0-0.4,0.1-0.7s0.1-0.4,0.1-0.7c0-0.2,0.1-0.4,0.1-0.6l1.8-8.3h-2.3
		l0.3-1.5c0.4,0,0.9-0.1,1.4-0.2s1-0.4,1.6-0.7s1.1-0.8,1.6-1.3s1-1.2,1.5-2h1.7l-0.8,3.7h3.6l-0.4,2.1H305l-1.8,8.2
		c-0.1,0.4-0.2,0.8-0.2,1.2s-0.1,0.7-0.1,1c0,0.5,0.1,0.9,0.4,1.1S303.9,512.1,304.4,512.1z"/>
	<path fill="#FFFFFF" d="M315.5,512.7c0.4,0,0.8-0.1,1.1-0.2c0.4-0.1,0.7-0.2,0.9-0.4c0.3-0.2,0.5-0.4,0.6-0.7
		c0.1-0.3,0.2-0.6,0.2-1c0-0.3-0.1-0.6-0.2-0.9c-0.1-0.3-0.3-0.5-0.6-0.7c-0.3-0.2-0.6-0.5-1.1-0.7c-0.4-0.2-0.9-0.5-1.5-0.8
		c-0.6-0.3-1.1-0.6-1.6-0.9s-0.9-0.7-1.2-1s-0.6-0.8-0.8-1.3c-0.2-0.5-0.3-1-0.3-1.6c0-0.7,0.2-1.4,0.5-2s0.8-1.1,1.3-1.5
		c0.6-0.4,1.3-0.7,2.1-1c0.8-0.2,1.8-0.3,2.8-0.3c1,0,1.9,0.1,2.6,0.2s1.3,0.4,1.7,0.6s0.7,0.6,0.9,0.9c0.2,0.3,0.3,0.7,0.3,1.1
		c0,0.8-0.3,1.4-0.9,1.7s-1.5,0.5-2.5,0.5c0-0.4,0-0.8-0.1-1.2c-0.1-0.4-0.2-0.8-0.4-1.1s-0.4-0.6-0.7-0.8s-0.7-0.3-1.1-0.3
		c-0.4,0-0.7,0.1-1,0.2c-0.3,0.1-0.6,0.3-0.8,0.5c-0.2,0.2-0.4,0.4-0.5,0.7s-0.2,0.5-0.2,0.8c0,0.3,0.1,0.6,0.2,0.9
		c0.1,0.2,0.3,0.5,0.6,0.7c0.3,0.2,0.6,0.4,1.1,0.6c0.4,0.2,0.9,0.4,1.5,0.7c0.6,0.3,1.2,0.6,1.7,0.9c0.5,0.3,0.9,0.7,1.2,1.1
		c0.3,0.4,0.5,0.8,0.7,1.3c0.2,0.5,0.2,1,0.2,1.5c0,0.8-0.2,1.5-0.5,2.2c-0.3,0.6-0.8,1.2-1.4,1.6s-1.4,0.8-2.3,1
		c-0.9,0.2-2,0.4-3.2,0.4c-0.9,0-1.6-0.1-2.3-0.2c-0.7-0.1-1.3-0.4-1.8-0.6c-0.5-0.3-0.9-0.6-1.1-1c-0.3-0.4-0.4-0.9-0.4-1.4
		c0-0.5,0.1-0.9,0.3-1.2s0.4-0.6,0.7-0.8s0.6-0.3,1-0.4s0.8-0.1,1.2-0.1c0,0.5,0.1,1,0.2,1.5s0.3,0.9,0.5,1.3s0.5,0.7,0.9,0.9
		C314.5,512.6,314.9,512.7,315.5,512.7z"/>
	<path fill="#FFFFFF" d="M330.6,511.8c0,0.5-0.1,0.9-0.2,1.3c-0.2,0.3-0.4,0.6-0.6,0.8c-0.2,0.2-0.5,0.4-0.8,0.5
		c-0.3,0.1-0.6,0.1-0.9,0.1c-0.7,0-1.3-0.2-1.8-0.5s-0.7-0.9-0.7-1.6c0-0.4,0.1-0.8,0.2-1.1c0.1-0.3,0.3-0.6,0.5-0.8
		c0.2-0.2,0.5-0.4,0.8-0.5c0.3-0.1,0.7-0.2,1.1-0.2c0.3,0,0.7,0,1,0.1s0.6,0.2,0.8,0.4c0.2,0.2,0.4,0.4,0.5,0.7
		S330.6,511.4,330.6,511.8z"/>
	<path fill="#FFFFFF" d="M334.5,508.2c0-0.8,0.1-1.5,0.3-2.3s0.4-1.6,0.8-2.4c0.4-0.8,0.8-1.5,1.3-2.2c0.5-0.7,1.2-1.3,1.9-1.8
		s1.6-0.9,2.5-1.2c0.9-0.3,1.9-0.5,3.1-0.5c0.9,0,1.7,0.1,2.4,0.4s1.4,0.6,2,1.1s1,1.2,1.3,2s0.5,1.8,0.5,2.9c0,0.7-0.1,1.5-0.2,2.3
		s-0.4,1.6-0.8,2.3c-0.3,0.8-0.8,1.5-1.3,2.2c-0.5,0.7-1.2,1.3-1.9,1.8s-1.5,0.9-2.5,1.3s-1.9,0.5-3.1,0.5c-0.9,0-1.8-0.1-2.6-0.4
		c-0.8-0.3-1.5-0.6-2-1.2c-0.6-0.5-1-1.2-1.3-2S334.5,509.3,334.5,508.2z M341.4,512.4c0.5,0,1-0.2,1.5-0.5c0.4-0.3,0.8-0.7,1.2-1.2
		c0.3-0.5,0.6-1.1,0.9-1.7s0.5-1.3,0.6-2c0.2-0.7,0.3-1.4,0.4-2c0.1-0.7,0.1-1.3,0.1-1.8c0-1.2-0.2-2-0.6-2.5
		c-0.4-0.5-1-0.8-1.7-0.8c-0.5,0-1,0.1-1.4,0.4s-0.8,0.7-1.2,1.2s-0.7,1-0.9,1.7c-0.3,0.6-0.5,1.3-0.7,2s-0.3,1.3-0.4,2
		s-0.1,1.3-0.1,1.8c0,1.2,0.2,2.1,0.6,2.6S340.7,512.4,341.4,512.4z"/>
	<path fill="#FFFFFF" d="M355.7,500.8c0-0.4-0.1-0.6-0.4-0.8c-0.2-0.2-0.6-0.2-1.2-0.2h-0.5l0.3-1.6h6.6l-0.6,4.1h0.1
		c0.3-0.7,0.7-1.4,1-1.9s0.7-1,1.1-1.4s0.9-0.7,1.4-0.8c0.5-0.2,1.1-0.3,1.8-0.3c1.1,0,1.9,0.2,2.4,0.6s0.8,1,0.8,1.7
		c0,1-0.3,1.8-0.9,2.3s-1.5,0.8-2.6,0.8c0-0.4,0-0.9-0.1-1.2c0-0.4-0.1-0.7-0.2-0.9c-0.1-0.3-0.3-0.5-0.5-0.6
		c-0.2-0.1-0.4-0.2-0.7-0.2s-0.6,0.1-0.9,0.3c-0.3,0.2-0.6,0.5-0.9,0.9s-0.6,0.9-0.9,1.4c-0.3,0.6-0.6,1.2-0.9,1.8s-0.5,1.3-0.7,2
		s-0.4,1.4-0.6,2.2l-1.1,5.2H353l2.5-12.1c0-0.2,0.1-0.4,0.1-0.7C355.7,501.2,355.7,501,355.7,500.8z"/>
	<path fill="#FFFFFF" d="M371.1,504.3c0-0.7,0.2-1.4,0.5-2.2c0.3-0.8,0.8-1.5,1.4-2.1c0.6-0.6,1.4-1.2,2.3-1.6s2-0.6,3.3-0.6
		c0.7,0,1.3,0.1,1.9,0.2c0.6,0.2,1.1,0.4,1.5,0.7c0.2-0.3,0.5-0.5,0.7-0.8c0.3-0.2,0.5-0.5,0.8-0.6s0.6-0.3,0.9-0.4s0.7-0.2,1-0.2
		c0.6,0,1.1,0.1,1.3,0.4s0.4,0.7,0.4,1.1c0,0.2,0,0.5-0.1,0.7s-0.2,0.5-0.3,0.7s-0.3,0.4-0.6,0.5c-0.2,0.1-0.6,0.2-0.9,0.2
		c0-0.4-0.1-0.7-0.3-1c-0.2-0.2-0.4-0.3-0.8-0.3c-0.3,0-0.5,0-0.7,0.1s-0.4,0.2-0.6,0.4c0.2,0.3,0.4,0.6,0.5,1.1s0.2,0.9,0.2,1.3
		c0,0.4-0.1,0.9-0.2,1.4c-0.1,0.5-0.3,1-0.6,1.4c-0.3,0.5-0.6,0.9-1,1.4s-0.9,0.8-1.4,1.1s-1.1,0.6-1.8,0.8s-1.4,0.3-2.3,0.3
		c-0.1,0-0.2,0-0.3,0s-0.3,0-0.4,0c-0.1,0-0.3,0-0.4,0s-0.2,0-0.3,0c-0.5,0.2-0.9,0.4-1.2,0.7c-0.3,0.3-0.5,0.6-0.5,0.9
		c0,0.2,0,0.3,0.1,0.4c0.1,0.1,0.2,0.2,0.3,0.3s0.3,0.1,0.5,0.2s0.4,0.1,0.6,0.1l3.4,0.3c1.5,0.1,2.6,0.5,3.4,1.2
		c0.8,0.7,1.2,1.6,1.2,2.9c0,0.9-0.2,1.7-0.6,2.5c-0.4,0.7-1,1.4-1.8,1.9c-0.8,0.5-1.8,0.9-2.9,1.2c-1.2,0.3-2.5,0.4-4,0.4
		c-1.2,0-2.3-0.1-3.1-0.3c-0.9-0.2-1.6-0.4-2.1-0.8s-0.9-0.7-1.2-1.2c-0.3-0.5-0.4-1-0.4-1.6c0-0.5,0.1-1,0.4-1.4s0.6-0.8,1.1-1.1
		c0.4-0.3,1-0.6,1.5-0.8s1.2-0.4,1.8-0.5c-0.2-0.1-0.4-0.2-0.6-0.4c-0.2-0.2-0.3-0.4-0.5-0.6c-0.1-0.2-0.3-0.5-0.3-0.7
		c-0.1-0.2-0.1-0.5-0.1-0.8c0-0.3,0.1-0.6,0.2-0.9s0.3-0.5,0.6-0.8s0.6-0.5,1-0.8c0.4-0.3,0.9-0.6,1.5-0.9c-0.7-0.3-1.2-0.8-1.6-1.4
		S371.1,505.2,371.1,504.3z M379,516.8c0-0.6-0.2-1-0.7-1.3c-0.4-0.3-1.2-0.5-2.2-0.6l-2.7-0.2c-0.4,0.1-0.9,0.2-1.2,0.3
		s-0.7,0.4-1,0.6s-0.5,0.5-0.7,0.8c-0.2,0.3-0.3,0.6-0.3,1c0,0.3,0.1,0.6,0.2,0.9c0.1,0.3,0.3,0.5,0.6,0.7c0.3,0.2,0.7,0.4,1.1,0.5
		c0.5,0.1,1.1,0.2,1.8,0.2c0.9,0,1.6-0.1,2.3-0.2c0.6-0.2,1.1-0.4,1.6-0.6s0.7-0.6,0.9-0.9S379,517.1,379,516.8z M376.5,506.7
		c0.4,0,0.7-0.1,1-0.2s0.6-0.4,0.8-0.7s0.4-0.6,0.6-0.9s0.3-0.7,0.4-1.1c0.1-0.4,0.2-0.7,0.3-1.1s0.1-0.7,0.1-1
		c0-0.7-0.1-1.2-0.4-1.5c-0.3-0.3-0.7-0.5-1.2-0.5c-0.5,0-1,0.2-1.4,0.5s-0.7,0.8-1,1.3s-0.5,1-0.6,1.6c-0.1,0.6-0.2,1.1-0.2,1.5
		c0,0.7,0.1,1.3,0.4,1.6S375.9,506.7,376.5,506.7z"/>
	<path fill="#FFFFFF" d="M385,517.9h-2.3l12.8-26.4h2.3L385,517.9z"/>
	<path fill="#FFFFFF" d="M403.5,512.2c0.5,0,1-0.1,1.4-0.2c0.4-0.1,0.8-0.3,1.1-0.6s0.6-0.5,0.9-0.8s0.5-0.6,0.7-0.9
		c0.1,0.1,0.2,0.3,0.3,0.5s0.1,0.5,0.1,0.8c0,0.4-0.1,0.8-0.3,1.2c-0.2,0.4-0.6,0.8-1.1,1.1c-0.5,0.3-1.1,0.6-1.8,0.8
		c-0.7,0.2-1.6,0.3-2.7,0.3c-0.9,0-1.8-0.1-2.6-0.4c-0.8-0.3-1.5-0.6-2.1-1.2c-0.6-0.5-1.1-1.2-1.4-1.9s-0.5-1.7-0.5-2.7
		c0-0.7,0.1-1.5,0.3-2.3c0.2-0.8,0.5-1.6,0.8-2.4c0.4-0.8,0.8-1.5,1.4-2.2c0.6-0.7,1.2-1.3,1.9-1.8s1.6-0.9,2.5-1.3s1.9-0.5,3-0.5
		c0.8,0,1.5,0.1,2.1,0.3c0.6,0.2,1.1,0.4,1.5,0.7s0.7,0.6,0.9,1c0.2,0.4,0.3,0.8,0.3,1.2c0,0.3-0.1,0.6-0.2,0.9
		c-0.1,0.3-0.3,0.6-0.6,0.8s-0.7,0.4-1.1,0.6c-0.5,0.1-1,0.2-1.7,0.2c0-0.5,0-1-0.1-1.5s-0.2-0.9-0.4-1.2c-0.2-0.4-0.4-0.6-0.7-0.8
		c-0.3-0.2-0.6-0.3-0.9-0.3c-0.4,0-0.8,0.1-1.2,0.4s-0.7,0.7-1,1.1s-0.6,1-0.8,1.6c-0.2,0.6-0.4,1.2-0.6,1.9
		c-0.2,0.6-0.3,1.3-0.4,1.9c-0.1,0.6-0.1,1.2-0.1,1.7c0,1.2,0.3,2.2,0.8,2.8C401.6,511.9,402.4,512.2,403.5,512.2z"/>
	<path fill="#FFFFFF" d="M411.5,508.2c0-0.8,0.1-1.5,0.3-2.3s0.4-1.6,0.8-2.4c0.4-0.8,0.8-1.5,1.3-2.2c0.5-0.7,1.2-1.3,1.9-1.8
		s1.6-0.9,2.5-1.2c0.9-0.3,1.9-0.5,3.1-0.5c0.9,0,1.7,0.1,2.4,0.4s1.4,0.6,2,1.1s1,1.2,1.3,2s0.5,1.8,0.5,2.9c0,0.7-0.1,1.5-0.2,2.3
		s-0.4,1.6-0.8,2.3c-0.3,0.8-0.8,1.5-1.3,2.2c-0.5,0.7-1.2,1.3-1.9,1.8s-1.5,0.9-2.5,1.3s-1.9,0.5-3.1,0.5c-0.9,0-1.8-0.1-2.6-0.4
		c-0.8-0.3-1.5-0.6-2-1.2c-0.6-0.5-1-1.2-1.3-2S411.5,509.3,411.5,508.2z M418.4,512.4c0.5,0,1-0.2,1.5-0.5c0.4-0.3,0.8-0.7,1.2-1.2
		c0.3-0.5,0.6-1.1,0.9-1.7s0.5-1.3,0.6-2c0.2-0.7,0.3-1.4,0.4-2c0.1-0.7,0.1-1.3,0.1-1.8c0-1.2-0.2-2-0.6-2.5
		c-0.4-0.5-1-0.8-1.7-0.8c-0.5,0-1,0.1-1.4,0.4s-0.8,0.7-1.2,1.2s-0.7,1-0.9,1.7c-0.3,0.6-0.5,1.3-0.7,2s-0.3,1.3-0.4,2
		s-0.1,1.3-0.1,1.8c0,1.2,0.2,2.1,0.6,2.6S417.6,512.4,418.4,512.4z"/>
	<path fill="#FFFFFF" d="M440.3,511.4c0-0.9,0.2-2.1,0.5-3.6l0.5-2.4c0-0.2,0.1-0.4,0.1-0.7s0.1-0.6,0.2-0.9
		c0.1-0.3,0.1-0.6,0.2-0.9c0-0.3,0.1-0.6,0.1-0.8c0-0.2,0-0.4-0.1-0.6s-0.1-0.4-0.2-0.6c-0.1-0.2-0.2-0.3-0.4-0.4
		c-0.2-0.1-0.4-0.2-0.6-0.2c-0.3,0-0.7,0.1-1,0.3c-0.3,0.2-0.7,0.5-1,0.9c-0.3,0.4-0.6,0.8-0.9,1.3c-0.3,0.5-0.5,1-0.8,1.5
		s-0.4,1-0.6,1.5s-0.3,0.9-0.4,1.3l-1.5,7h-4.5l2.5-11.9c0-0.1,0.1-0.3,0.1-0.4s0-0.3,0.1-0.4c0-0.1,0-0.2,0-0.3s0-0.2,0-0.2
		c0-0.3,0-0.5-0.1-0.7s-0.2-0.3-0.3-0.4s-0.3-0.1-0.5-0.2s-0.4,0-0.7,0h-0.5l0.3-1.6h6.7l-0.3,3.2h0.2c0.4-0.6,0.8-1.1,1.2-1.6
		c0.4-0.4,0.8-0.8,1.3-1.1s1-0.5,1.5-0.6c0.6-0.1,1.2-0.2,1.8-0.2c0.6,0,1.2,0.1,1.6,0.3c0.4,0.2,0.8,0.4,1.1,0.8
		c0.3,0.3,0.5,0.7,0.6,1.1c0.1,0.4,0.2,0.9,0.2,1.3c0,0.3,0,0.5-0.1,0.8c0,0.3-0.1,0.6-0.1,0.9s-0.1,0.6-0.2,0.9s-0.1,0.6-0.2,0.8
		l-0.7,3.2c-0.1,0.5-0.2,1.1-0.3,1.5s-0.1,0.9-0.1,1.3c0,0.4,0.1,0.8,0.3,1c0.2,0.2,0.4,0.4,0.8,0.4c0.3,0,0.6-0.1,0.9-0.2
		c0.3-0.1,0.6-0.3,0.9-0.5l0.7,1c-0.2,0.3-0.5,0.5-0.8,0.8c-0.3,0.2-0.6,0.5-1,0.7c-0.4,0.2-0.8,0.4-1.3,0.5s-1,0.2-1.5,0.2
		c-1.2,0-2-0.3-2.7-0.8C440.6,513.2,440.3,512.4,440.3,511.4z"/>
	<path fill="#FFFFFF" d="M460.5,511.4c0-0.9,0.2-2.1,0.5-3.6l0.5-2.4c0-0.2,0.1-0.4,0.1-0.7s0.1-0.6,0.2-0.9
		c0.1-0.3,0.1-0.6,0.2-0.9c0-0.3,0.1-0.6,0.1-0.8c0-0.2,0-0.4-0.1-0.6s-0.1-0.4-0.2-0.6c-0.1-0.2-0.2-0.3-0.4-0.4
		c-0.2-0.1-0.4-0.2-0.6-0.2c-0.3,0-0.7,0.1-1,0.3c-0.3,0.2-0.7,0.5-1,0.9c-0.3,0.4-0.6,0.8-0.9,1.3c-0.3,0.5-0.5,1-0.8,1.5
		s-0.4,1-0.6,1.5s-0.3,0.9-0.4,1.3l-1.5,7h-4.5l2.5-11.9c0-0.1,0.1-0.3,0.1-0.4s0-0.3,0.1-0.4c0-0.1,0-0.2,0-0.3s0-0.2,0-0.2
		c0-0.3,0-0.5-0.1-0.7s-0.2-0.3-0.3-0.4s-0.3-0.1-0.5-0.2s-0.4,0-0.7,0h-0.5l0.3-1.6h6.7l-0.3,3.2h0.2c0.4-0.6,0.8-1.1,1.2-1.6
		c0.4-0.4,0.8-0.8,1.3-1.1s1-0.5,1.5-0.6c0.6-0.1,1.2-0.2,1.8-0.2c0.6,0,1.2,0.1,1.6,0.3c0.4,0.2,0.8,0.4,1.1,0.8
		c0.3,0.3,0.5,0.7,0.6,1.1c0.1,0.4,0.2,0.9,0.2,1.3c0,0.3,0,0.5-0.1,0.8c0,0.3-0.1,0.6-0.1,0.9s-0.1,0.6-0.2,0.9s-0.1,0.6-0.2,0.8
		l-0.7,3.2c-0.1,0.5-0.2,1.1-0.3,1.5s-0.1,0.9-0.1,1.3c0,0.4,0.1,0.8,0.3,1c0.2,0.2,0.4,0.4,0.8,0.4c0.3,0,0.6-0.1,0.9-0.2
		c0.3-0.1,0.6-0.3,0.9-0.5l0.7,1c-0.2,0.3-0.5,0.5-0.8,0.8c-0.3,0.2-0.6,0.5-1,0.7c-0.4,0.2-0.8,0.4-1.3,0.5s-1,0.2-1.5,0.2
		c-1.2,0-2-0.3-2.7-0.8C460.8,513.2,460.5,512.4,460.5,511.4z"/>
	<path fill="#FFFFFF" d="M478.2,512.2c0.5,0,1-0.1,1.4-0.2s0.8-0.3,1.2-0.6c0.4-0.2,0.7-0.5,1-0.8c0.3-0.3,0.6-0.6,0.8-0.9
		c0.1,0.1,0.2,0.3,0.3,0.6c0.1,0.2,0.1,0.5,0.1,0.7c0,0.4-0.1,0.7-0.4,1.1s-0.6,0.8-1.1,1.1c-0.5,0.3-1.1,0.6-1.8,0.8
		c-0.7,0.2-1.6,0.3-2.7,0.3c-0.9,0-1.8-0.1-2.6-0.4s-1.5-0.6-2.1-1.2c-0.6-0.5-1.1-1.2-1.4-1.9c-0.4-0.8-0.5-1.7-0.5-2.7
		c0-0.7,0.1-1.5,0.3-2.3s0.5-1.6,0.9-2.4c0.4-0.8,0.9-1.5,1.4-2.2c0.6-0.7,1.2-1.3,2-1.8s1.6-0.9,2.5-1.3c0.9-0.3,2-0.5,3.1-0.5
		c1.4,0,2.5,0.3,3.3,0.9c0.8,0.6,1.2,1.5,1.2,2.6c0,0.8-0.2,1.6-0.7,2.3s-1.1,1.4-1.9,2c-0.8,0.6-1.7,1-2.8,1.3s-2.3,0.5-3.6,0.5
		c-0.2,0-0.3,0-0.5,0s-0.4,0-0.6,0c0,0.2,0,0.4-0.1,0.6c0,0.2,0,0.4,0,0.5c0,1.2,0.3,2.1,0.8,2.7
		C476.3,511.9,477.1,512.2,478.2,512.2z M479.2,499.6c-0.5,0-1,0.2-1.4,0.5c-0.4,0.4-0.8,0.8-1.2,1.4s-0.7,1.2-0.9,2
		s-0.4,1.4-0.6,2.2h0.3c0.7,0,1.4-0.1,2.1-0.3s1.2-0.5,1.7-0.8c0.5-0.4,0.8-0.8,1.1-1.3s0.4-1.1,0.4-1.7c0-0.6-0.1-1.1-0.4-1.4
		C480.1,499.8,479.7,499.6,479.2,499.6z"/>
	<path fill="#FFFFFF" d="M494.3,512.2c0.5,0,1-0.1,1.4-0.2c0.4-0.1,0.8-0.3,1.1-0.6s0.6-0.5,0.9-0.8s0.5-0.6,0.7-0.9
		c0.1,0.1,0.2,0.3,0.3,0.5s0.1,0.5,0.1,0.8c0,0.4-0.1,0.8-0.3,1.2c-0.2,0.4-0.6,0.8-1.1,1.1c-0.5,0.3-1.1,0.6-1.8,0.8
		c-0.7,0.2-1.6,0.3-2.7,0.3c-0.9,0-1.8-0.1-2.6-0.4c-0.8-0.3-1.5-0.6-2.1-1.2c-0.6-0.5-1.1-1.2-1.4-1.9s-0.5-1.7-0.5-2.7
		c0-0.7,0.1-1.5,0.3-2.3c0.2-0.8,0.5-1.6,0.8-2.4c0.4-0.8,0.8-1.5,1.4-2.2c0.6-0.7,1.2-1.3,1.9-1.8s1.6-0.9,2.5-1.3s1.9-0.5,3-0.5
		c0.8,0,1.5,0.1,2.1,0.3c0.6,0.2,1.1,0.4,1.5,0.7s0.7,0.6,0.9,1c0.2,0.4,0.3,0.8,0.3,1.2c0,0.3-0.1,0.6-0.2,0.9
		c-0.1,0.3-0.3,0.6-0.6,0.8s-0.7,0.4-1.1,0.6c-0.5,0.1-1,0.2-1.7,0.2c0-0.5,0-1-0.1-1.5s-0.2-0.9-0.4-1.2c-0.2-0.4-0.4-0.6-0.7-0.8
		c-0.3-0.2-0.6-0.3-0.9-0.3c-0.4,0-0.8,0.1-1.2,0.4s-0.7,0.7-1,1.1s-0.6,1-0.8,1.6c-0.2,0.6-0.4,1.2-0.6,1.9
		c-0.2,0.6-0.3,1.3-0.4,1.9c-0.1,0.6-0.1,1.2-0.1,1.7c0,1.2,0.3,2.2,0.8,2.8C492.4,511.9,493.2,512.2,494.3,512.2z"/>
	<path fill="#FFFFFF" d="M509.1,512.1c0.5,0,0.9-0.1,1.3-0.2s0.7-0.3,1.1-0.6l0.7,1.1c-0.3,0.3-0.7,0.6-1,0.8
		c-0.4,0.3-0.8,0.5-1.2,0.7c-0.4,0.2-0.9,0.3-1.4,0.5c-0.5,0.1-1,0.2-1.6,0.2c-0.5,0-1.1-0.1-1.5-0.2c-0.5-0.1-0.9-0.4-1.2-0.6
		c-0.4-0.3-0.6-0.7-0.8-1.1s-0.3-1-0.3-1.6c0-0.2,0-0.4,0-0.6c0-0.2,0-0.4,0.1-0.7s0.1-0.4,0.1-0.7c0-0.2,0.1-0.4,0.1-0.6l1.8-8.3
		h-2.3l0.3-1.5c0.4,0,0.9-0.1,1.4-0.2s1-0.4,1.6-0.7s1.1-0.8,1.6-1.3c0.5-0.5,1-1.2,1.5-2h1.7l-0.8,3.7h3.6l-0.4,2.1h-3.7l-1.8,8.2
		c-0.1,0.4-0.2,0.8-0.2,1.2c0,0.4-0.1,0.7-0.1,1c0,0.5,0.1,0.9,0.4,1.1S508.7,512.1,509.1,512.1z"/>
	<path fill="#FFFFFF" d="M514.7,508.2c0-0.8,0.1-1.5,0.3-2.3s0.4-1.6,0.8-2.4c0.4-0.8,0.8-1.5,1.3-2.2c0.5-0.7,1.2-1.3,1.9-1.8
		s1.6-0.9,2.5-1.2c0.9-0.3,1.9-0.5,3.1-0.5c0.9,0,1.7,0.1,2.4,0.4s1.4,0.6,2,1.1s1,1.2,1.3,2s0.5,1.8,0.5,2.9c0,0.7-0.1,1.5-0.2,2.3
		s-0.4,1.6-0.8,2.3c-0.3,0.8-0.8,1.5-1.3,2.2c-0.5,0.7-1.2,1.3-1.9,1.8s-1.5,0.9-2.5,1.3s-1.9,0.5-3.1,0.5c-0.9,0-1.8-0.1-2.6-0.4
		c-0.8-0.3-1.5-0.6-2-1.2c-0.6-0.5-1-1.2-1.3-2S514.7,509.3,514.7,508.2z M521.6,512.4c0.5,0,1-0.2,1.5-0.5c0.4-0.3,0.8-0.7,1.2-1.2
		c0.3-0.5,0.6-1.1,0.9-1.7s0.5-1.3,0.6-2c0.2-0.7,0.3-1.4,0.4-2c0.1-0.7,0.1-1.3,0.1-1.8c0-1.2-0.2-2-0.6-2.5
		c-0.4-0.5-1-0.8-1.7-0.8c-0.5,0-1,0.1-1.4,0.4s-0.8,0.7-1.2,1.2s-0.7,1-0.9,1.7c-0.3,0.6-0.5,1.3-0.7,2s-0.3,1.3-0.4,2
		s-0.1,1.3-0.1,1.8c0,1.2,0.2,2.1,0.6,2.6S520.9,512.4,521.6,512.4z"/>
	<path fill="#FFFFFF" d="M535.9,500.8c0-0.4-0.1-0.6-0.4-0.8c-0.2-0.2-0.6-0.2-1.2-0.2h-0.5l0.3-1.6h6.6l-0.6,4.1h0.1
		c0.3-0.7,0.7-1.4,1-1.9s0.7-1,1.1-1.4s0.9-0.7,1.4-0.8c0.5-0.2,1.1-0.3,1.8-0.3c1.1,0,1.9,0.2,2.4,0.6s0.8,1,0.8,1.7
		c0,1-0.3,1.8-0.9,2.3s-1.5,0.8-2.6,0.8c0-0.4,0-0.9-0.1-1.2c0-0.4-0.1-0.7-0.2-0.9c-0.1-0.3-0.3-0.5-0.5-0.6
		c-0.2-0.1-0.4-0.2-0.7-0.2s-0.6,0.1-0.9,0.3c-0.3,0.2-0.6,0.5-0.9,0.9s-0.6,0.9-0.9,1.4c-0.3,0.6-0.6,1.2-0.9,1.8s-0.5,1.3-0.7,2
		s-0.4,1.4-0.6,2.2l-1.1,5.2h-4.5l2.5-12.1c0-0.2,0.1-0.4,0.1-0.7C535.9,501.2,535.9,501,535.9,500.8z"/>
</g>
</svg>
