<?xml version="1.0" encoding="utf-8"?>
<!-- Generator: Adobe Illustrator 19.0.0, SVG Export Plug-In . SVG Version: 6.00 Build 0)  -->
<svg version="1.0" id="Layer_1" xmlns="http://www.w3.org/2000/svg" xmlns:xlink="http://www.w3.org/1999/xlink" x="0px" y="0px"
	 viewBox="102 219.9 816.3 354.1" style="enable-background:new 102 219.9 816.3 354.1;" xml:space="preserve">
<style type="text/css">
	.st0{fill:#009F9E;}
	.st1{fill:#FFFFFF;}
</style>
<path class="st0" d="M895.2,574H336.9c-6.6,0-12-5.4-12-12v-42.8c0-6.6,5.4-12,12-12h558.3c6.6,0,12,5.4,12,12V562
	C907.2,568.6,901.8,574,895.2,574z"/>
<g>
	<g>
		<path class="st0" d="M222.6,310.7l-14.7-57.8h7.9l6.9,29.2c1.7,7.2,3.3,14.4,4.3,20h0.2c0.9-5.7,2.7-12.6,4.7-20.1l7.7-29.1h7.8
			l7,29.3c1.6,6.9,3.2,13.7,4,19.8h0.2c1.2-6.3,2.8-12.8,4.6-20l7.6-29.1h7.6L262,310.7h-7.8l-7.2-30.1c-1.8-7.4-3-13-3.8-18.9H243
			c-1,5.7-2.3,11.4-4.5,18.9l-8.2,30.1H222.6z"/>
		<path class="st0" d="M315.6,283.6h-22.5v20.8h25v6.3h-32.5V253h31.2v6.3h-23.7v18.3h22.5V283.6z"/>
		<path class="st0" d="M326.8,301.6c3.3,2.1,8.2,3.8,13.4,3.8c7.6,0,12.1-4,12.1-9.9c0-5.4-3.1-8.5-10.9-11.5
			c-9.4-3.3-15.3-8.2-15.3-16.4c0-9,7.5-15.7,18.7-15.7c5.9,0,10.2,1.4,12.8,2.8l-2.1,6.1c-1.9-1-5.7-2.7-11-2.7
			c-7.9,0-10.9,4.7-10.9,8.7c0,5.4,3.5,8.1,11.5,11.1c9.8,3.8,14.7,8.5,14.7,17c0,8.9-6.6,16.6-20.2,16.6c-5.6,0-11.7-1.6-14.7-3.7
			L326.8,301.6z"/>
		<path class="st0" d="M381.1,259.3h-17.6V253h42.8v6.3h-17.7v51.4h-7.5L381.1,259.3L381.1,259.3z"/>
		<path class="st0" d="M429.8,301.6c3.3,2.1,8.2,3.8,13.4,3.8c7.6,0,12.1-4,12.1-9.9c0-5.4-3.1-8.5-10.9-11.5
			c-9.4-3.3-15.3-8.2-15.3-16.4c0-9,7.5-15.7,18.7-15.7c5.9,0,10.2,1.4,12.8,2.8l-2.1,6.1c-1.9-1-5.7-2.7-11-2.7
			c-7.9,0-10.9,4.7-10.9,8.7c0,5.4,3.5,8.1,11.5,11.1c9.8,3.8,14.7,8.5,14.7,17c0,8.9-6.6,16.6-20.2,16.6c-5.6,0-11.7-1.6-14.7-3.7
			L429.8,301.6z"/>
		<path class="st0" d="M482.4,292.6l-6,18.2h-7.7l19.6-57.8h9l19.7,57.8h-8l-6.2-18.2H482.4z M501.4,286.7l-5.7-16.6
			c-1.3-3.8-2.1-7.2-3-10.5h-0.2c-0.9,3.4-1.8,6.9-2.9,10.5l-5.6,16.6H501.4z"/>
		<path class="st0" d="M525.6,253h7.5v51.5h24.7v6.3h-32.1V253H525.6z"/>
		<path class="st0" d="M595.9,283.6h-22.5v20.8h25v6.3H566V253h31.2v6.3h-23.7v18.3H596L595.9,283.6L595.9,283.6z"/>
		<path class="st0" d="M656.8,285.4c-0.4-8.1-0.9-17.7-0.9-24.9h-0.3c-2,6.8-4.4,14-7.3,21.9l-10.2,28h-5.7l-9.1-27.5
			c-2.7-8.1-5.1-15.6-6.7-22.5h-0.2c-0.2,7.2-0.6,16.9-1.1,25.5l-1.5,24.8h-7.1l4-57.8h9.5l9.8,28c2.4,7.1,4.4,13.5,5.8,19.5h0.3
			c1.5-5.8,3.5-12.2,6.1-19.5l10.3-27.9h9.5l3.6,57.8h-7.3L656.8,285.4z"/>
	</g>
	<g>
		<g>
			<path class="st0" d="M192.5,383.7c-0.6,2.9-1.3,7-2.2,12.3c-0.8,5.3-1.4,9.3-1.7,12.2c-10.7,1.6-20.2,2.4-28.6,2.4
				c-8.1,0-15.6-1-22.6-3s-13.4-5.3-19.2-10c-5.8-4.6-10-10-12.5-16.3c-2.5-6.2-3.7-13.2-3.7-21c0-9,1.7-17.2,5.1-24.4
				c3.4-7.2,8.2-13.2,14.5-18c6.3-4.8,13.2-8.3,20.8-10.3c7.5-2.1,15.3-3.1,23.4-3.1c7.4,0,16.5,1,27.4,2.8l0.2,6.3
				c0.1,2.7,0.2,5.8,0.4,9.1l0.5,8.5c-5.8-1.4-10.6-2.3-14.2-2.8c-3.6-0.5-7-0.7-10.1-0.7c-6.7,0-12.8,1.3-18.2,4
				c-5.4,2.7-9.6,6.6-12.7,11.8c-3.1,5.1-4.6,10.8-4.6,17.1c0,5.7,1.3,10.6,3.9,14.6c2.6,4.1,6.1,7.2,10.5,9.4
				c4.4,2.2,9.9,3.3,16.4,3.3c3.5,0,7.4-0.3,11.6-0.9C180.9,386.4,186.2,385.3,192.5,383.7z"/>
		</g>
		<g>
			<path class="st0" d="M250.4,330.2c6.2,0,12.1,0.9,17.9,2.8c5.7,1.9,10.5,4.6,14.5,8.2c3.9,3.6,6.9,7.7,8.7,12.5
				c1.9,4.8,2.8,9.9,2.8,15.4c0,5.3-0.8,10.4-2.5,15.2s-4.5,9.3-8.5,13.6c-4,4.2-9.1,7.4-15.2,9.5c-6.2,2.1-12.7,3.1-19.6,3.1
				c-6.3,0-12.4-0.9-18.3-2.8c-5.8-1.8-10.7-4.5-14.6-8.1c-3.9-3.5-6.9-7.8-8.8-12.7c-2-4.9-3-10.1-3-15.6c0-5.4,1-10.6,2.9-15.6
				c1.9-4.9,5-9.4,9.1-13.3c4.2-3.9,9.3-7,15.5-9.1C237.4,331.3,243.8,330.2,250.4,330.2z M249.9,352.2c-3.2,0-6,0.8-8.5,2.5
				c-2.5,1.6-4.4,4.1-5.7,7.2c-1.3,3.2-1.9,6.6-1.9,10.4c0,5.5,1.4,9.7,4.1,12.6c2.7,2.9,6.2,4.4,10.3,4.4c3.1,0,6-0.8,8.5-2.5
				s4.4-4.1,5.7-7.4c1.3-3.3,1.9-6.8,1.9-10.5c0-3.1-0.5-5.9-1.5-8.4s-2.6-4.5-4.9-6C255.6,353,253,352.2,249.9,352.2z"/>
		</g>
		<g>
			<path class="st0" d="M304.7,408.6c1.4-11.3,2.5-23.9,3.3-37.6s1.2-26.7,1.4-38.9c6,0.1,11.2,0.1,15.5,0.1c5,0,9.9,0,14.5-0.1
				l-0.7,10.2c1.6-1.8,3.1-3.3,4.3-4.4s2.7-2.1,4.5-3.1s3.7-1.9,5.7-2.5c2-0.6,4.2-1.2,6.6-1.5c2.4-0.4,4.9-0.6,7.5-0.6
				c3.6,0,7.1,0.4,10.5,1.2c3.4,0.8,6.3,1.9,8.6,3.3c2.3,1.4,4.2,3.2,5.8,5.3c1.5,2.1,2.6,4.4,3.1,6.9c0.5,2.4,0.7,5,0.7,7.6
				c0,1.9-0.2,6-0.6,12.3l-1.3,27.1c-0.3,5.3-0.4,10.3-0.4,14.8c-5-0.1-9.8-0.1-14.1-0.1c-5.9,0-11.3,0.1-16.2,0.1
				c0.5-4.5,0.9-11.3,1.4-20.3s0.8-15.3,0.8-18.9c0-5.6-1.1-9.6-3.3-11.8c-2.2-2.2-4.9-3.3-8.2-3.3c-2.9,0-5.6,0.9-8.2,2.8
				c-2.6,1.9-4.6,4.7-6,8.3c-1.4,3.6-2.4,9.6-3,17.9s-1,16.7-1.2,25.3c-5-0.1-9.9-0.1-14.6-0.1C315.9,408.5,310.5,408.5,304.7,408.6
				z"/>
		</g>
		<g>
			<path class="st0" d="M408.9,408.6c1.4-11.3,2.5-23.9,3.3-37.6s1.2-26.7,1.4-38.9c6,0.1,11.2,0.1,15.5,0.1c5,0,9.9,0,14.5-0.1
				l-0.7,10.2c1.6-1.8,3.1-3.3,4.3-4.4c1.2-1.1,2.7-2.1,4.5-3.1s3.7-1.9,5.7-2.5c2-0.6,4.2-1.2,6.6-1.5c2.4-0.4,4.9-0.6,7.5-0.6
				c3.6,0,7.1,0.4,10.5,1.2c3.4,0.8,6.3,1.9,8.6,3.3c2.3,1.4,4.2,3.2,5.8,5.3c1.5,2.1,2.6,4.4,3.1,6.9c0.5,2.4,0.7,5,0.7,7.6
				c0,1.9-0.2,6-0.6,12.3l-1.3,27.1c-0.3,5.3-0.4,10.3-0.4,14.8c-5-0.1-9.8-0.1-14.1-0.1c-5.9,0-11.3,0.1-16.2,0.1
				c0.5-4.5,0.9-11.3,1.4-20.3s0.8-15.3,0.8-18.9c0-5.6-1.1-9.6-3.3-11.8c-2.2-2.2-4.9-3.3-8.2-3.3c-2.9,0-5.6,0.9-8.2,2.8
				c-2.6,1.9-4.6,4.7-6,8.3c-1.4,3.6-2.4,9.6-3,17.9s-1,16.7-1.2,25.3c-5-0.1-9.9-0.1-14.6-0.1C420.2,408.5,414.7,408.5,408.9,408.6
				z"/>
		</g>
		<g>
			<path class="st0" d="M588,386c-0.6,3-1.9,10.2-3.7,21.7c-5.8,1.1-10.7,1.9-14.6,2.3c-3.9,0.4-7.9,0.6-12,0.6
				c-5.9,0-11.4-0.4-16.4-1.2c-5-0.8-9.3-2.3-12.9-4.4c-3.6-2.1-6.7-4.7-9.1-7.8s-4.3-6.8-5.6-11.1c-1.3-4.3-1.9-8.7-1.9-13.2
				c0-6.4,1.3-12.6,3.8-18.7c2.5-6.1,5.8-10.9,9.8-14.3c4-3.4,8.6-5.9,13.9-7.3c5.2-1.4,10.6-2.2,16.1-2.2c5.7,0,11.1,0.7,16.3,2
				c5.2,1.3,9.6,3.6,13.1,6.9c3.6,3.3,6.2,7,7.7,11.2c1.5,4.1,2.3,8.6,2.3,13.4c0,2.8-0.3,6-1,9.5l-52.5,0.1
				c-0.1,0.8-0.1,1.5-0.1,2.2c0,5.4,1.9,9.3,5.8,11.9c3.8,2.5,8.5,3.8,14.1,3.8c3.3,0,7.1-0.4,11.3-1.2
				C576.6,389.1,581.8,387.8,588,386z M542,361.8h24.7c0.1-0.8,0.1-1.6,0.1-2.2c0-2.6-0.5-4.8-1.4-6.7c-0.9-1.8-2.2-3.2-4-4
				c-1.7-0.8-3.7-1.3-5.8-1.3c-1.5,0-2.9,0.2-4.3,0.7s-2.7,1.2-3.8,2.1c-1.1,0.9-2.1,2-2.8,3.2c-0.7,1.2-1.3,2.4-1.6,3.5
				C542.7,358.2,542.3,359.8,542,361.8z"/>
		</g>
		<g>
			<path class="st0" d="M668.5,384.7c-0.2,2-0.8,5.7-1.8,11l-1.9,12c-7.8,1.9-15.5,2.8-23,2.8c-5.4,0-10.2-0.5-14.3-1.6
				c-4.8-1.3-9.2-3.6-13-6.9c-3.9-3.4-6.8-7.4-8.6-12.1c-2.1-5.4-3.2-11.5-3.2-18.3c0-6.2,1-12.2,3.1-17.9
				c2.1-5.7,5.2-10.5,9.3-14.2s8.6-6.2,13.6-7.5s10.5-1.9,16.6-1.9c3.5,0,7.1,0.2,10.7,0.6c3.6,0.4,8,1.2,13.3,2.4l0.2,1.7
				c0.1,1.8,0.3,3.6,0.3,5.5c0.1,1.9,0.2,4.8,0.5,8.9l0.4,6.7c-7.1-2.5-13.5-3.7-18.9-3.7c-3.9,0-7.4,0.8-10.4,2.3s-5.2,3.7-6.6,6.6
				c-1.4,2.9-2.1,6.2-2.1,10s0.6,7.1,1.9,9.7c1.3,2.6,3.3,4.5,6.1,5.8s5.9,1.9,9.2,1.9c1.7,0,3.7-0.2,6-0.5s4.3-0.7,6.1-1.2
				C663.6,386.4,665.8,385.7,668.5,384.7z"/>
		</g>
		<g>
			<path class="st0" d="M738,386.6c-0.9,4.2-1.7,8.3-2.3,12.3l-1.6,9.1c-4.9,1.1-8.8,1.8-11.6,2.1s-5.5,0.4-8.1,0.4
				c-4.2,0-8-0.4-11.3-1.1c-3.3-0.7-6-2-8.2-4c-2.2-1.9-3.7-4.1-4.5-6.6s-1.2-5.1-1.2-7.9c0-0.5,0-1.4,0.1-2.7
				c0-1.3,0.2-4.1,0.5-8.5l1.6-25.9h-11.7c0.2-3.4,0.5-8,0.7-13.6l0.2-7H693c0.3-2.3,0.7-7.3,1.1-15.1l12.8-2.6
				c2.3-0.4,7.3-1.6,15-3.4c-0.4,6.5-0.6,13.6-0.8,21.1h17.1c-0.4,10.4-0.6,17.2-0.6,20.6h-17.2l-0.9,18.7c-0.1,2.8-0.2,4.6-0.2,5.4
				c0,2.4,0.3,4.4,0.8,6s1.4,2.7,2.8,3.4c1.3,0.7,2.8,1,4.4,1c1.2,0,2.4-0.1,3.8-0.3C732.4,388,734.7,387.5,738,386.6z"/>
		</g>
		<g>
			<path class="st0" d="M860.5,408.6l2.3-33.3l0.7-19.1c0-3.4,0.1-7,0.1-10.6c0-3.6,0-8.2-0.1-13.6c6,0.1,10.8,0.1,14.4,0.1
				c4.1,0,8.9,0,14.3-0.1l-0.3,8.5c1.9-2.2,3.5-3.8,4.8-4.9c1.2-1.1,2.7-2,4.3-2.9s3.3-1.5,5-1.9c1.7-0.4,3.6-0.6,5.5-0.6
				c1.8,0,3.8,0.2,6,0.7c0,5.4,0.2,9.9,0.4,13.5l0.5,11.5c-2.7-0.8-5.3-1.2-7.7-1.2c-3,0-5.6,0.4-7.7,1.3c-2.2,0.9-4.1,2.2-5.8,4
				c-1.7,1.8-3,4-4,6.6c-1,2.6-1.7,6.8-2.1,12.6c-0.4,5.7-0.6,12.3-0.6,19.7c0,2.6,0.1,5.8,0.3,9.7c-4.8-0.1-9.7-0.1-14.6-0.1
				C871.2,408.5,866,408.5,860.5,408.6z"/>
		</g>
		<g>
			<path class="st0" d="M837.5,323.5c-2.9-1.8-6.1-3.9-5.8-4.7c0.5-1.6,1.6-3.2,3.9-4.5c1.8-1.1,3.4-2.1,2.4-4.2
				c-1.8-3.4-5.3-7.6-7.9-9.7c-0.8-0.8-2.4-0.8-3.7-0.8c-2.5,0-5.3,1.2-7.4,2.5c3.1-9.2,12.9-26.4,28.2-49.9
				c6.5-9.9,10.4-16.4,10.4-21.3c0-4-2.5-7.2-8.4-10.7c-2-1.2-6.7,3-6.7,4.7c0,0.2,0.2,0.5,0.7,0.5c1,0,1.5,0.5,1.5,1.5
				c0,3-3.2,10.2-7.7,19.4c-9.1,18.2-23,45.5-23,57.9c0,0.4,0,0.7,0.1,1c-39,25.7-62.3,59.2-62.3,83.5c0,6.1,1.3,11.3,4.2,16.1
				c6.5,9.3,12.7,11.4,24.7,11.4c3.2,0,8.7-0.8,12.2-1.8c33.7-7.1,62-36.4,62-62.2C854.9,341.4,849.9,331.2,837.5,323.5z
				 M795.4,402.8c-6.8,2.9-12.6,4.2-17.1,4.2c-8.9,0-14-6.1-12.6-16.1c2.2-19.3,26.9-46.2,44.1-59.3c0.2,0.8,0.6,1.6,1.2,2.6
				c1.2,2,4.2,3.7,6.7,3.7c1.7,0,2.7-0.7,4.5-3c1.6-2.2,2.9-7,3.3-10.6c3.4,1.2,9.4,4.9,11.6,6.2c6.6,3.9,9.7,10,9.7,17.4
				C846.8,365.4,828.3,388.8,795.4,402.8z"/>
		</g>
	</g>
	<g>
		<g>
			<path class="st0" d="M132.3,460.5c2.1,1.1,5.5,2.2,8.9,2.2c3.7,0,5.7-1.5,5.7-3.9c0-2.2-1.7-3.5-6-5c-5.9-2.1-9.8-5.4-9.8-10.6
				c0-6.1,5.1-10.7,13.5-10.7c4.1,0,7,0.8,9.1,1.8l-1.8,6.5c-1.4-0.7-4-1.7-7.4-1.7c-3.5,0-5.2,1.6-5.2,3.4c0,2.3,2,3.3,6.6,5.1
				c6.3,2.3,9.2,5.6,9.2,10.7c0,6-4.6,11.1-14.3,11.1c-4.1,0-8.1-1.1-10.1-2.2L132.3,460.5z"/>
		</g>
		<g>
			<path class="st0" d="M179.5,459.6l-2.5,9.2h-8.4l10.9-35.7H190l11.1,35.7h-8.7l-2.8-9.2H179.5z M188.6,453.5l-2.2-7.6
				c-0.6-2.1-1.2-4.8-1.7-6.9h-0.2c-0.5,2.1-1.1,4.8-1.6,6.9l-2.2,7.6H188.6z"/>
		</g>
		<g>
			<path class="st0" d="M216.6,433.1h8V462h14.2v6.8h-22.2C216.6,468.8,216.6,433.1,216.6,433.1z"/>
		</g>
		<g>
			<path class="st0" d="M275.4,453.6h-13.1v8.5H277v6.6h-22.7V433h22v6.6h-13.9v7.4h13.1v6.6H275.4z"/>
		</g>
		<g>
			<path class="st0" d="M323.3,455.1c-0.2-4.3-0.3-9.4-0.3-14.7h-0.1c-1.2,4.6-2.6,9.6-4,13.8l-4.3,13.9h-6.3l-3.8-13.8
				c-1.2-4.2-2.3-9.3-3.2-14H301c-0.2,4.8-0.4,10.3-0.6,14.8l-0.7,13.6h-7.5l2.3-35.7h10.8l3.5,12c1.2,4.1,2.2,8.5,3,12.7h0.2
				c1-4.1,2.2-8.8,3.4-12.8l3.8-11.9h10.6l1.9,35.7h-7.8L323.3,455.1z"/>
		</g>
		<g>
			<path class="st0" d="M375.3,433.1h8v15.8h0.1c0.8-1.4,1.6-2.6,2.5-3.9l8-11.9h10l-11.8,15.2l12.4,20.5h-9.4l-8.8-15.4l-3,3.8
				v11.6h-8L375.3,433.1L375.3,433.1z"/>
		</g>
		<g>
			<path class="st0" d="M439.6,453.6h-13.1v8.5h14.7v6.6h-22.7V433h22v6.6h-13.9v7.4h13.1v6.6H439.6z"/>
		</g>
		<g>
			<path class="st0" d="M465.4,433.1v35.7h-8v-35.7H465.4z"/>
		</g>
		<g>
			<path class="st0" d="M480.7,464.4l17-24.5v-0.2h-15.5V433h25.9v4.7l-16.6,24.2v0.2h16.9v6.7h-27.7L480.7,464.4L480.7,464.4z"/>
		</g>
		<g>
			<path class="st0" d="M545.3,453.6h-13.1v8.5h14.7v6.6h-22.7V433h22v6.6h-13.9v7.4h13.1v6.6H545.3z"/>
		</g>
		<g>
			<path class="st0" d="M562.9,433.6c2.6-0.5,6.4-0.8,10.7-0.8c5.3,0,9,0.8,11.5,2.9c2.2,1.7,3.3,4.2,3.3,7.5c0,4.5-3.2,7.6-6.3,8.7
				v0.2c2.5,1,3.9,3.3,4.8,6.6c1.1,4.1,2.2,8.7,2.9,10.1h-8.3c-0.5-1-1.4-3.9-2.4-8.3c-1-4.5-2.5-5.7-5.9-5.7h-2.4v14h-8
				L562.9,433.6L562.9,433.6z M570.9,448.9h3.2c4,0,6.4-2,6.4-5.1c0-3.2-2.2-4.9-5.9-4.9c-2,0-3.1,0.1-3.6,0.3L570.9,448.9
				L570.9,448.9z"/>
		</g>
		<g>
			<path class="st0" d="M633.1,439.8h-9.6V433h27.4v6.8h-9.7v28.9h-8v-28.9H633.1z"/>
		</g>
		<g>
			<path class="st0" d="M665.8,433.6c2.6-0.5,6.4-0.8,10.7-0.8c5.3,0,9,0.8,11.5,2.9c2.2,1.7,3.3,4.2,3.3,7.5c0,4.5-3.2,7.6-6.3,8.7
				v0.2c2.5,1,3.9,3.3,4.8,6.6c1.1,4.1,2.2,8.7,2.9,10.1h-8.3c-0.5-1-1.4-3.9-2.4-8.3c-1-4.5-2.5-5.7-5.9-5.7h-2.4v14h-8v-35.2
				H665.8z M673.8,448.9h3.2c4,0,6.4-2,6.4-5.1c0-3.2-2.2-4.9-5.9-4.9c-2,0-3.1,0.1-3.7,0.3V448.9z"/>
		</g>
		<g>
			<path class="st0" d="M716.5,459.6l-2.5,9.2h-8.4l10.9-35.7H727l11.1,35.7h-8.7l-2.8-9.2H716.5z M725.6,453.5l-2.2-7.6
				c-0.6-2.1-1.2-4.8-1.7-6.9h-0.2c-0.5,2.1-1.1,4.8-1.6,6.9l-2.2,7.6H725.6z"/>
		</g>
		<g>
			<path class="st0" d="M753.6,468.7V433h9.4l7.4,13.1c2.1,3.8,4.2,8.2,5.8,12.2h0.1c-0.5-4.7-0.6-9.5-0.6-14.9V433h7.4v35.7h-8.5
				l-7.6-13.8c-2.1-3.9-4.5-8.4-6.2-12.6h-0.2c0.3,4.8,0.4,9.8,0.4,15.6v10.7h-7.4V468.7z"/>
		</g>
		<g>
			<path class="st0" d="M801,460.5c2.1,1.1,5.5,2.2,8.9,2.2c3.7,0,5.7-1.5,5.7-3.9c0-2.2-1.7-3.5-6-5c-5.9-2.1-9.8-5.4-9.8-10.6
				c0-6.1,5.1-10.7,13.5-10.7c4.1,0,7,0.8,9.1,1.8l-1.8,6.5c-1.4-0.7-4-1.7-7.4-1.7c-3.5,0-5.2,1.6-5.2,3.4c0,2.3,2,3.3,6.6,5.1
				c6.3,2.3,9.2,5.6,9.2,10.7c0,6-4.6,11.1-14.3,11.1c-4.1,0-8.1-1.1-10.1-2.2L801,460.5z"/>
		</g>
		<g>
			<path class="st0" d="M848,433.1v35.7h-8v-35.7H848z"/>
		</g>
		<g>
			<path class="st0" d="M872.5,439.8h-9.6V433h27.4v6.8h-9.7v28.9h-8v-28.9H872.5z"/>
		</g>
		<g>
			<rect x="347" y="447.6" class="st0" width="12.4" height="6.6"/>
		</g>
	</g>
</g>
<g>
	<path class="st1" d="M369,522.4l-0.4,5.3l-0.5-0.2c-3.1-1.2-5.5-1.7-7.2-1.7c-3.6,0-6.6,1.1-8.8,3.4c-1.1,1.1-1.9,2.4-2.5,3.9
		c-0.6,1.5-0.8,3.2-0.8,5.1c0,3.5,1.1,6.4,3.4,8.7s5.2,3.3,8.9,3.3c1.2,0,3.1-0.4,5.6-1.3l2-0.6l0.6,5.3l-1.8,0.5
		c-3.1,0.9-5.4,1.3-6.9,1.3c-5.7,0-10.3-1.5-13.6-4.6s-5-7.3-5-12.5s1.7-9.5,5-12.7s7.7-4.8,13.2-4.8c1.7,0,4,0.4,6.9,1.3L369,522.4
		z"/>
	<path class="st1" d="M374.3,518.7h6.2v15.2c0.8-1.4,2-2.5,3.3-3.2c1.3-0.7,3-1.1,4.8-1.1c2.8,0,5,0.9,6.5,2.7s2.2,4.4,2.2,7.8v14.5
		H391v-13.1c0-2.3-0.4-3.9-1.1-5c-0.7-1.1-2-1.6-3.6-1.6c-1.7,0-3.1,0.7-4.2,2.1c-1.1,1.4-1.6,3.2-1.6,5.6v12.1h-6.2L374.3,518.7
		L374.3,518.7z"/>
	<path class="st1" d="M425.7,542.2v2h-17.1c0,1,0.2,1.9,0.6,2.7c0.4,0.8,1,1.5,1.8,2.1c1.4,1.2,3.3,1.8,5.6,1.8
		c1.3,0,2.5-0.1,3.7-0.4c1.2-0.3,2.3-0.7,3.5-1.3v4.8c-1.2,0.5-2.4,0.8-3.9,1.1c-1.4,0.3-2.9,0.4-4.4,0.4c-4,0-7.2-1.2-9.5-3.5
		c-2.3-2.3-3.4-5.6-3.4-9.7c0-3.7,1.1-6.7,3.3-8.9s5.1-3.4,8.7-3.4c3.5,0,6.3,1.1,8.2,3.3C424.7,535.4,425.7,538.2,425.7,542.2z
		 M420.1,540.3c0-1-0.2-1.9-0.5-2.7s-0.7-1.5-1.3-2.1c-1-1.2-2.3-1.7-3.8-1.7c-1.6,0-2.9,0.6-3.9,1.7c-1,1.1-1.7,2.7-2,4.8
		L420.1,540.3L420.1,540.3z"/>
	<path class="st1" d="M445.6,530l-0.2,5.6l-1-0.2l-1.1-0.1c-2.1,0-3.6,0.7-4.7,2.1c-1.1,1.4-1.6,3.4-1.6,6v11.4h-6.2v-24.3h5.6v4.9
		c0.8-1.8,1.8-3.2,3-4.1s2.6-1.4,4.2-1.4l0.9,0.1H445.6z"/>
	<path class="st1" d="M464.5,530l-0.2,5.6l-1-0.2l-1.1-0.1c-2.1,0-3.6,0.7-4.7,2.1c-1.1,1.4-1.6,3.4-1.6,6v11.4h-6.2v-24.3h5.6v4.9
		c0.8-1.8,1.8-3.2,3-4.1s2.6-1.4,4.2-1.4l0.9,0.1H464.5z"/>
	<path class="st1" d="M468.4,519.4h6.2v6h-6.2V519.4z M468.4,530.3h6.2v24.3h-6.2V530.3z"/>
	<path class="st1" d="M493.1,529.7c4,0,7.2,1.1,9.5,3.4s3.4,5.4,3.4,9.4c0,3.9-1.2,7.1-3.5,9.4s-5.5,3.4-9.5,3.4s-7.2-1.1-9.5-3.4
		s-3.4-5.4-3.4-9.4s1.1-7.1,3.4-9.4S489.1,529.7,493.1,529.7z M493.1,534.2c-1.9,0-3.4,0.8-4.6,2.3s-1.8,3.5-1.8,5.9
		s0.6,4.4,1.8,5.9c1.2,1.5,2.7,2.2,4.6,2.2s3.5-0.7,4.6-2.2s1.7-3.5,1.7-5.9s-0.6-4.4-1.8-5.9C496.6,534.9,495.1,534.2,493.1,534.2z
		"/>
	<path class="st1" d="M520.1,522.4v7.9h5.9v4.6h-5.9v10.7c0,1.8,0.3,3.1,0.8,3.9s1.5,1.2,2.8,1.2c0.4,0,0.7,0,1.1-0.1
		c0.4-0.1,0.6-0.1,0.7-0.1c0.3-0.1,0.4-0.2,0.5-0.2l0.1,4.4c-0.7,0.2-1.4,0.3-2.1,0.4s-1.5,0.1-2.2,0.1c-2.9,0-4.9-0.7-6.2-2.1
		s-1.9-3.8-1.9-7.1v-11H509v-4.6h5.1v-5.9L520.1,522.4z"/>
	<path class="st1" d="M546.5,531.1l-0.5,4.6c-1.1-0.6-2.2-1-3.2-1.3s-2.1-0.4-3.1-0.4c-1.1,0-2,0.2-2.6,0.6s-0.9,0.9-0.9,1.7
		c0,1.1,1.3,2.2,3.8,3.3l0.6,0.3c2.6,1.1,4.4,2.3,5.4,3.4c1,1.1,1.5,2.5,1.5,4.1c0,2.3-0.9,4.1-2.8,5.5c-1.9,1.4-4.4,2-7.5,2
		c-1.4,0-2.7-0.1-4-0.3c-1.3-0.2-2.5-0.5-3.6-0.9l0.3-4.8c1.1,0.5,2.3,1,3.6,1.3c1.2,0.3,2.4,0.4,3.6,0.4s2.2-0.2,2.9-0.6
		c0.7-0.4,1-1,1-1.7c0-1.2-1.6-2.6-4.8-4.2l-0.1-0.1c-2.4-1.2-4-2.3-4.9-3.3c-0.9-1-1.3-2.3-1.3-3.7c0-2.1,0.9-3.9,2.7-5.2
		c1.8-1.3,4.2-2,7.1-2c0.8,0,1.6,0.1,2.6,0.3c0.6,0.1,1.1,0.2,1.7,0.4C544.6,530.7,545.5,530.7,546.5,531.1z"/>
	<path class="st1" d="M553.2,548.4h6.2v6.2h-6.2V548.4z"/>
	<path class="st1" d="M578.4,529.7c4,0,7.2,1.1,9.5,3.4c2.3,2.3,3.4,5.4,3.4,9.4c0,3.9-1.2,7.1-3.5,9.4s-5.5,3.4-9.5,3.4
		s-7.2-1.1-9.5-3.4s-3.4-5.4-3.4-9.4s1.1-7.1,3.4-9.4S574.4,529.7,578.4,529.7z M578.4,534.2c-1.9,0-3.4,0.8-4.6,2.3
		s-1.8,3.5-1.8,5.9s0.6,4.4,1.8,5.9s2.7,2.2,4.6,2.2c1.9,0,3.5-0.7,4.6-2.2s1.7-3.5,1.7-5.9s-0.6-4.4-1.8-5.9
		C581.8,534.9,580.3,534.2,578.4,534.2z"/>
	<path class="st1" d="M611.9,530l-0.2,5.6l-1-0.2l-1.1-0.1c-2.1,0-3.6,0.7-4.7,2.1c-1.1,1.4-1.6,3.4-1.6,6v11.4H597v-24.3h5.6v4.9
		c0.8-1.8,1.8-3.2,3-4.1c1.2-0.9,2.6-1.4,4.2-1.4l0.9,0.1H611.9z"/>
	<path class="st1" d="M633.3,534.5v-4.2h5.8v21.4c0,4.5-1.1,7.8-3.4,10.1s-5.6,3.4-10.2,3.4c-0.7,0-1.4,0-2.2-0.1s-1.4-0.2-2.2-0.3
		c-1.4-0.2-2.8-0.6-4.2-1.1l0.4-5c1.2,0.6,2.5,1.1,3.8,1.4s2.6,0.5,3.8,0.5c2.5,0,4.5-0.7,5.9-2.1c1.4-1.4,2.1-3.3,2.1-5.8v-2.6
		c-1.1,1.5-2.3,2.7-3.6,3.4c-1.3,0.7-2.8,1.1-4.5,1.1c-3.1,0-5.7-1.1-7.6-3.4c-1.9-2.3-2.9-5.2-2.9-8.9s1-6.8,2.9-9.1
		c1.9-2.3,4.5-3.5,7.6-3.5c1.8,0,3.4,0.4,4.8,1.2C631,531.7,632.3,532.8,633.3,534.5z M626.8,534.4c-1.7,0-3.1,0.7-4.1,2.1
		s-1.6,3.2-1.6,5.5s0.5,4.2,1.6,5.6c1.1,1.4,2.5,2.1,4.2,2.1s3.1-0.7,4.2-2.1c1.1-1.4,1.7-3.2,1.7-5.4c0-2.4-0.5-4.3-1.6-5.7
		S628.6,534.4,626.8,534.4z"/>
	<path class="st1" d="M652.7,520.6h4.3l-12.7,38.5h-4.2L652.7,520.6z"/>
	<path class="st1" d="M677.5,530.9l-0.5,4.9c-1-0.4-2-0.7-2.8-0.9c-0.8-0.2-1.5-0.3-2.1-0.3c-2.3,0-4.2,0.7-5.7,2.2
		c-1.4,1.4-2.1,3.3-2.1,5.7c0,2.3,0.7,4.3,2.1,5.7c1.4,1.5,3.3,2.2,5.6,2.2c0.8,0,1.7-0.1,2.5-0.4c0.4-0.1,0.9-0.3,1.3-0.5
		s1-0.4,1.5-0.8l0.2,5c-1.7,0.6-3.1,1-4.1,1.2s-1.9,0.3-2.7,0.3c-4,0-7.1-1.2-9.5-3.6c-2.4-2.4-3.6-5.5-3.6-9.4c0-3.6,1.2-6.6,3.7-9
		c2.4-2.4,5.6-3.6,9.3-3.6c1.4,0,3.2,0.3,5.5,0.9L677.5,530.9z"/>
	<path class="st1" d="M694.2,529.7c4,0,7.2,1.1,9.5,3.4s3.4,5.4,3.4,9.4c0,3.9-1.2,7.1-3.5,9.4s-5.5,3.4-9.5,3.4s-7.2-1.1-9.5-3.4
		s-3.4-5.4-3.4-9.4s1.1-7.1,3.4-9.4S690.2,529.7,694.2,529.7z M694.2,534.2c-1.9,0-3.4,0.8-4.6,2.3s-1.8,3.5-1.8,5.9
		s0.6,4.4,1.8,5.9s2.7,2.2,4.6,2.2c1.9,0,3.5-0.7,4.6-2.2s1.7-3.5,1.7-5.9s-0.6-4.4-1.8-5.9C697.7,534.9,696.1,534.2,694.2,534.2z"
		/>
	<path class="st1" d="M735.8,540.2v14.5h-6.3v-13.1c0-2.3-0.4-3.9-1.1-5s-2-1.6-3.6-1.6c-1.7,0-3.1,0.7-4.2,2.1s-1.6,3.2-1.6,5.6
		v12.1h-6.2v-24.3h5.7v4.4c0.9-1.6,2.1-2.9,3.6-3.8c1.5-0.9,3.2-1.3,5.1-1.3c2.8,0,5,0.9,6.5,2.7
		C735.2,534.3,735.8,536.7,735.8,540.2z"/>
	<path class="st1" d="M765.7,540.2v14.5h-6.3v-13.1c0-2.3-0.4-3.9-1.1-5s-2-1.6-3.6-1.6c-1.7,0-3.1,0.7-4.2,2.1s-1.6,3.2-1.6,5.6
		v12.1h-6.2v-24.3h5.7v4.4c0.9-1.6,2.1-2.9,3.6-3.8c1.5-0.9,3.2-1.3,5.1-1.3c2.8,0,5,0.9,6.5,2.7
		C765.1,534.3,765.7,536.7,765.7,540.2z"/>
	<path class="st1" d="M794.1,542.2v2H777c0,1,0.2,1.9,0.6,2.7c0.4,0.8,1,1.5,1.8,2.1c1.4,1.2,3.3,1.8,5.6,1.8c1.3,0,2.5-0.1,3.7-0.4
		c1.2-0.3,2.3-0.7,3.5-1.3v4.8c-1.2,0.5-2.4,0.8-3.9,1.1c-1.4,0.3-2.9,0.4-4.4,0.4c-4,0-7.2-1.2-9.5-3.5c-2.3-2.3-3.4-5.6-3.4-9.7
		c0-3.7,1.1-6.7,3.3-8.9s5.1-3.4,8.7-3.4c3.5,0,6.3,1.1,8.2,3.3C793.1,535.4,794.1,538.2,794.1,542.2z M788.4,540.3
		c0-1-0.2-1.9-0.5-2.7s-0.7-1.5-1.3-2.1c-1-1.2-2.3-1.7-3.8-1.7c-1.6,0-2.9,0.6-3.9,1.7c-1,1.1-1.7,2.7-2,4.8L788.4,540.3
		L788.4,540.3z"/>
	<path class="st1" d="M817.1,530.9l-0.5,4.9c-1-0.4-2-0.7-2.8-0.9c-0.8-0.2-1.5-0.3-2.1-0.3c-2.3,0-4.2,0.7-5.7,2.2
		c-1.4,1.4-2.1,3.3-2.1,5.7c0,2.3,0.7,4.3,2.1,5.7c1.4,1.5,3.3,2.2,5.6,2.2c0.8,0,1.7-0.1,2.5-0.4c0.4-0.1,0.9-0.3,1.3-0.5
		s1-0.4,1.5-0.8l0.2,5c-1.7,0.6-3.1,1-4.1,1.2s-1.9,0.3-2.7,0.3c-4,0-7.1-1.2-9.5-3.6c-2.4-2.4-3.6-5.5-3.6-9.4c0-3.6,1.2-6.6,3.7-9
		c2.4-2.4,5.6-3.6,9.3-3.6c1.4,0,3.2,0.3,5.5,0.9L817.1,530.9z"/>
	<path class="st1" d="M830.8,522.4v7.9h5.9v4.6h-5.9v10.7c0,1.8,0.3,3.1,0.8,3.9s1.5,1.2,2.8,1.2c0.4,0,0.7,0,1.1-0.1
		c0.4-0.1,0.6-0.1,0.7-0.1c0.3-0.1,0.4-0.2,0.5-0.2l0.1,4.4c-0.7,0.2-1.4,0.3-2.1,0.4s-1.5,0.1-2.2,0.1c-2.9,0-4.9-0.7-6.2-2.1
		s-1.9-3.8-1.9-7.1v-11h-4.8v-4.6h5.1v-5.9L830.8,522.4z"/>
	<path class="st1" d="M853.1,529.7c4,0,7.2,1.1,9.5,3.4s3.4,5.4,3.4,9.4c0,3.9-1.2,7.1-3.5,9.4s-5.5,3.4-9.5,3.4s-7.2-1.1-9.5-3.4
		s-3.4-5.4-3.4-9.4s1.1-7.1,3.4-9.4S849,529.7,853.1,529.7z M853.1,534.2c-1.9,0-3.4,0.8-4.6,2.3s-1.8,3.5-1.8,5.9s0.6,4.4,1.8,5.9
		s2.7,2.2,4.6,2.2c1.9,0,3.5-0.7,4.6-2.2s1.7-3.5,1.7-5.9s-0.6-4.4-1.8-5.9C856.5,534.9,855,534.2,853.1,534.2z"/>
	<path class="st1" d="M886.6,530l-0.2,5.6l-1-0.2l-1.1-0.1c-2.1,0-3.6,0.7-4.7,2.1c-1.1,1.4-1.6,3.4-1.6,6v11.4h-6.2v-24.3h5.6v4.9
		c0.8-1.8,1.8-3.2,3-4.1s2.6-1.4,4.2-1.4l0.9,0.1H886.6z"/>
</g>
</svg>
